<svg width="335" height="110" viewBox="0 0 335 110" fill="none" xmlns="http://www.w3.org/2000/svg">
<rect width="335" height="110" rx="15" fill="#FCB8F0"/>
<mask id="mask0_2191_80239" style="mask-type:alpha" maskUnits="userSpaceOnUse" x="0" y="0" width="335" height="110">
<path d="M0 20C0 8.95431 8.95431 0 20 0H315C326.046 0 335 8.95431 335 20V90C335 101.046 326.046 110 315 110H20C8.95431 110 0 101.046 0 90V20Z" fill="#267CFF"/>
</mask>
<g mask="url(#mask0_2191_80239)">
<ellipse opacity="0.2" cx="186.576" cy="52.0901" rx="5.11806" ry="3.55882" fill="white" fill-opacity="0.8"/>
<ellipse opacity="0.2" cx="29.3125" cy="20.3824" rx="29.3125" ry="20.3824" transform="matrix(-1 0 0 1 70.7222 -21.3516)" fill="white" fill-opacity="0.8"/>
<ellipse opacity="0.2" cx="16.2847" cy="11.3235" rx="16.2847" ry="11.3235" transform="matrix(-1 0 0 1 178.667 13.5898)" fill="white" fill-opacity="0.8"/>
<ellipse opacity="0.2" cx="94.4514" cy="65.6765" rx="94.4514" ry="65.6765" transform="matrix(-1 0 0 1 128.903 39.2852)" fill="white" fill-opacity="0.8"/>
<ellipse opacity="0.2" cx="66" cy="45.9643" rx="66" ry="45.9643" transform="matrix(-1 0 0 1 401 -24.3594)" fill="white" fill-opacity="0.8"/>
</g>
<path d="M20.82 26.2243C19.7493 26.2243 18.7813 26.041 17.916 25.6743C17.0653 25.3076 16.3907 24.7796 15.892 24.0903C15.3933 23.401 15.1367 22.587 15.122 21.6483H18.422C18.466 22.279 18.686 22.7776 19.082 23.1443C19.4927 23.511 20.05 23.6943 20.754 23.6943C21.4727 23.6943 22.0373 23.5256 22.448 23.1883C22.8587 22.8363 23.064 22.3816 23.064 21.8243C23.064 21.3696 22.9247 20.9956 22.646 20.7023C22.3673 20.409 22.0153 20.1816 21.59 20.0203C21.1793 19.8443 20.6073 19.6536 19.874 19.4483C18.8767 19.155 18.0627 18.869 17.432 18.5903C16.816 18.297 16.2807 17.8643 15.826 17.2923C15.386 16.7056 15.166 15.9283 15.166 14.9603C15.166 14.051 15.3933 13.259 15.848 12.5843C16.3027 11.9096 16.9407 11.3963 17.762 11.0443C18.5833 10.6776 19.522 10.4943 20.578 10.4943C22.162 10.4943 23.4453 10.883 24.428 11.6603C25.4253 12.423 25.9753 13.4936 26.078 14.8723H22.69C22.6607 14.3443 22.4333 13.9116 22.008 13.5743C21.5973 13.2223 21.0473 13.0463 20.358 13.0463C19.7567 13.0463 19.2727 13.2003 18.906 13.5083C18.554 13.8163 18.378 14.2636 18.378 14.8503C18.378 15.261 18.51 15.6056 18.774 15.8843C19.0527 16.1483 19.39 16.3683 19.786 16.5443C20.1967 16.7056 20.7687 16.8963 21.502 17.1163C22.4993 17.4096 23.3133 17.703 23.944 17.9963C24.5747 18.2896 25.1173 18.7296 25.572 19.3163C26.0267 19.903 26.254 20.673 26.254 21.6263C26.254 22.4476 26.0413 23.2103 25.616 23.9143C25.1907 24.6183 24.5673 25.183 23.746 25.6083C22.9247 26.019 21.9493 26.2243 20.82 26.2243ZM38.2479 23.1443H32.1319L31.1199 26.0703H27.8859L33.4079 10.6923H36.9939L42.5159 26.0703H39.2599L38.2479 23.1443ZM37.4119 20.6803L35.1899 14.2563L32.9679 20.6803H37.4119ZM47.5677 23.6283H52.6277V26.0703H44.4877V10.7143H47.5677V23.6283ZM61.621 26.2243C60.1837 26.2243 58.8637 25.887 57.661 25.2123C56.4584 24.5376 55.505 23.6063 54.801 22.4183C54.097 21.2156 53.745 19.859 53.745 18.3483C53.745 16.8523 54.097 15.5103 54.801 14.3223C55.505 13.1196 56.4584 12.181 57.661 11.5063C58.8637 10.8316 60.1837 10.4943 61.621 10.4943C63.073 10.4943 64.393 10.8316 65.581 11.5063C66.7837 12.181 67.7297 13.1196 68.419 14.3223C69.123 15.5103 69.475 16.8523 69.475 18.3483C69.475 19.859 69.123 21.2156 68.419 22.4183C67.7297 23.6063 66.7837 24.5376 65.581 25.2123C64.3784 25.887 63.0584 26.2243 61.621 26.2243ZM61.621 23.4743C62.545 23.4743 63.359 23.269 64.063 22.8583C64.767 22.433 65.317 21.8316 65.713 21.0543C66.109 20.277 66.307 19.375 66.307 18.3483C66.307 17.3216 66.109 16.427 65.713 15.6643C65.317 14.887 64.767 14.293 64.063 13.8823C63.359 13.4716 62.545 13.2663 61.621 13.2663C60.697 13.2663 59.8757 13.4716 59.157 13.8823C58.453 14.293 57.903 14.887 57.507 15.6643C57.111 16.427 56.913 17.3216 56.913 18.3483C56.913 19.375 57.111 20.277 57.507 21.0543C57.903 21.8316 58.453 22.433 59.157 22.8583C59.8757 23.269 60.697 23.4743 61.621 23.4743ZM84.8082 26.0703H81.7282L74.7542 15.5323V26.0703H71.6742V10.6923H74.7542L81.7282 21.2523V10.6923H84.8082V26.0703ZM100.894 26.0703H97.8136L90.8396 15.5323V26.0703H87.7596V10.6923H90.8396L97.8136 21.2523V10.6923H100.894V26.0703ZM106.991 23.4743H113.899V26.0703H103.427V23.6943L110.291 13.3103H103.427V10.7143H113.899V13.0903L106.991 23.4743Z" fill="#354259"/>
<path d="M15.43 38.07C15.43 38.65 15.23 39.1333 14.83 39.52C14.4367 39.9 13.8333 40.09 13.02 40.09H11.68V43H10.77V36.03H13.02C13.8067 36.03 14.4033 36.22 14.81 36.6C15.2233 36.98 15.43 37.47 15.43 38.07ZM13.02 39.34C13.5267 39.34 13.9 39.23 14.14 39.01C14.38 38.79 14.5 38.4767 14.5 38.07C14.5 37.21 14.0067 36.78 13.02 36.78H11.68V39.34H13.02ZM17.3787 38.41C17.5387 38.0967 17.7654 37.8533 18.0587 37.68C18.3587 37.5067 18.722 37.42 19.1487 37.42V38.36H18.9087C17.8887 38.36 17.3787 38.9133 17.3787 40.02V43H16.4687V37.52H17.3787V38.41ZM25.1069 40.05C25.1069 40.2233 25.0969 40.4067 25.0769 40.6H20.6969C20.7302 41.14 20.9135 41.5633 21.2469 41.87C21.5869 42.17 21.9969 42.32 22.4769 42.32C22.8702 42.32 23.1969 42.23 23.4569 42.05C23.7235 41.8633 23.9102 41.6167 24.0169 41.31H24.9969C24.8502 41.8367 24.5569 42.2667 24.1169 42.6C23.6769 42.9267 23.1302 43.09 22.4769 43.09C21.9569 43.09 21.4902 42.9733 21.0769 42.74C20.6702 42.5067 20.3502 42.1767 20.1169 41.75C19.8835 41.3167 19.7669 40.8167 19.7669 40.25C19.7669 39.6833 19.8802 39.1867 20.1069 38.76C20.3335 38.3333 20.6502 38.0067 21.0569 37.78C21.4702 37.5467 21.9435 37.43 22.4769 37.43C22.9969 37.43 23.4569 37.5433 23.8569 37.77C24.2569 37.9967 24.5635 38.31 24.7769 38.71C24.9969 39.1033 25.1069 39.55 25.1069 40.05ZM24.1669 39.86C24.1669 39.5133 24.0902 39.2167 23.9369 38.97C23.7835 38.7167 23.5735 38.5267 23.3069 38.4C23.0469 38.2667 22.7569 38.2 22.4369 38.2C21.9769 38.2 21.5835 38.3467 21.2569 38.64C20.9369 38.9333 20.7535 39.34 20.7069 39.86H24.1669ZM32.8057 37.42C33.2324 37.42 33.6124 37.51 33.9457 37.69C34.2791 37.8633 34.5424 38.1267 34.7357 38.48C34.9291 38.8333 35.0257 39.2633 35.0257 39.77V43H34.1257V39.9C34.1257 39.3533 33.9891 38.9367 33.7157 38.65C33.4491 38.3567 33.0857 38.21 32.6257 38.21C32.1524 38.21 31.7757 38.3633 31.4957 38.67C31.2157 38.97 31.0757 39.4067 31.0757 39.98V43H30.1757V39.9C30.1757 39.3533 30.0391 38.9367 29.7657 38.65C29.4991 38.3567 29.1357 38.21 28.6757 38.21C28.2024 38.21 27.8257 38.3633 27.5457 38.67C27.2657 38.97 27.1257 39.4067 27.1257 39.98V43H26.2157V37.52H27.1257V38.31C27.3057 38.0233 27.5457 37.8033 27.8457 37.65C28.1524 37.4967 28.4891 37.42 28.8557 37.42C29.3157 37.42 29.7224 37.5233 30.0757 37.73C30.4291 37.9367 30.6924 38.24 30.8657 38.64C31.0191 38.2533 31.2724 37.9533 31.6257 37.74C31.9791 37.5267 32.3724 37.42 32.8057 37.42ZM36.8962 36.63C36.7228 36.63 36.5762 36.57 36.4562 36.45C36.3362 36.33 36.2762 36.1833 36.2762 36.01C36.2762 35.8367 36.3362 35.69 36.4562 35.57C36.5762 35.45 36.7228 35.39 36.8962 35.39C37.0628 35.39 37.2028 35.45 37.3162 35.57C37.4362 35.69 37.4962 35.8367 37.4962 36.01C37.4962 36.1833 37.4362 36.33 37.3162 36.45C37.2028 36.57 37.0628 36.63 36.8962 36.63ZM37.3362 37.52V43H36.4262V37.52H37.3362ZM43.6548 37.52V43H42.7448V42.19C42.5715 42.47 42.3281 42.69 42.0148 42.85C41.7081 43.0033 41.3681 43.08 40.9948 43.08C40.5681 43.08 40.1848 42.9933 39.8448 42.82C39.5048 42.64 39.2348 42.3733 39.0348 42.02C38.8415 41.6667 38.7448 41.2367 38.7448 40.73V37.52H39.6448V40.61C39.6448 41.15 39.7815 41.5667 40.0548 41.86C40.3281 42.1467 40.7015 42.29 41.1748 42.29C41.6615 42.29 42.0448 42.14 42.3248 41.84C42.6048 41.54 42.7448 41.1033 42.7448 40.53V37.52H43.6548ZM51.689 37.42C52.1156 37.42 52.4956 37.51 52.829 37.69C53.1623 37.8633 53.4256 38.1267 53.619 38.48C53.8123 38.8333 53.909 39.2633 53.909 39.77V43H53.009V39.9C53.009 39.3533 52.8723 38.9367 52.599 38.65C52.3323 38.3567 51.969 38.21 51.509 38.21C51.0356 38.21 50.659 38.3633 50.379 38.67C50.099 38.97 49.959 39.4067 49.959 39.98V43H49.059V39.9C49.059 39.3533 48.9223 38.9367 48.649 38.65C48.3823 38.3567 48.019 38.21 47.559 38.21C47.0856 38.21 46.709 38.3633 46.429 38.67C46.149 38.97 46.009 39.4067 46.009 39.98V43H45.099V37.52H46.009V38.31C46.189 38.0233 46.429 37.8033 46.729 37.65C47.0356 37.4967 47.3723 37.42 47.739 37.42C48.199 37.42 48.6056 37.5233 48.959 37.73C49.3123 37.9367 49.5756 38.24 49.749 38.64C49.9023 38.2533 50.1556 37.9533 50.509 37.74C50.8623 37.5267 51.2556 37.42 51.689 37.42ZM64.9531 36.08V43H64.0431V37.84L61.7431 43H61.1031L58.7931 37.83V43H57.8831V36.08H58.8631L61.4231 41.8L63.9831 36.08H64.9531ZM71.4041 40.05C71.4041 40.2233 71.3941 40.4067 71.3741 40.6H66.9941C67.0274 41.14 67.2107 41.5633 67.5441 41.87C67.8841 42.17 68.2941 42.32 68.7741 42.32C69.1674 42.32 69.4941 42.23 69.7541 42.05C70.0207 41.8633 70.2074 41.6167 70.3141 41.31H71.2941C71.1474 41.8367 70.8541 42.2667 70.4141 42.6C69.9741 42.9267 69.4274 43.09 68.7741 43.09C68.2541 43.09 67.7874 42.9733 67.3741 42.74C66.9674 42.5067 66.6474 42.1767 66.4141 41.75C66.1807 41.3167 66.0641 40.8167 66.0641 40.25C66.0641 39.6833 66.1774 39.1867 66.4041 38.76C66.6307 38.3333 66.9474 38.0067 67.3541 37.78C67.7674 37.5467 68.2407 37.43 68.7741 37.43C69.2941 37.43 69.7541 37.5433 70.1541 37.77C70.5541 37.9967 70.8607 38.31 71.0741 38.71C71.2941 39.1033 71.4041 39.55 71.4041 40.05ZM70.4641 39.86C70.4641 39.5133 70.3874 39.2167 70.2341 38.97C70.0807 38.7167 69.8707 38.5267 69.6041 38.4C69.3441 38.2667 69.0541 38.2 68.7341 38.2C68.2741 38.2 67.8807 38.3467 67.5541 38.64C67.2341 38.9333 67.0507 39.34 67.0041 39.86H70.4641ZM79.1029 37.42C79.5296 37.42 79.9096 37.51 80.2429 37.69C80.5763 37.8633 80.8396 38.1267 81.0329 38.48C81.2263 38.8333 81.3229 39.2633 81.3229 39.77V43H80.4229V39.9C80.4229 39.3533 80.2863 38.9367 80.0129 38.65C79.7463 38.3567 79.3829 38.21 78.9229 38.21C78.4496 38.21 78.0729 38.3633 77.7929 38.67C77.5129 38.97 77.3729 39.4067 77.3729 39.98V43H76.4729V39.9C76.4729 39.3533 76.3363 38.9367 76.0629 38.65C75.7963 38.3567 75.4329 38.21 74.9729 38.21C74.4996 38.21 74.1229 38.3633 73.8429 38.67C73.5629 38.97 73.4229 39.4067 73.4229 39.98V43H72.5129V37.52H73.4229V38.31C73.6029 38.0233 73.8429 37.8033 74.1429 37.65C74.4496 37.4967 74.7863 37.42 75.1529 37.42C75.6129 37.42 76.0196 37.5233 76.3729 37.73C76.7263 37.9367 76.9896 38.24 77.1629 38.64C77.3163 38.2533 77.5696 37.9533 77.9229 37.74C78.2763 37.5267 78.6696 37.42 79.1029 37.42ZM83.6334 38.54C83.82 38.2133 84.0934 37.9467 84.4534 37.74C84.8134 37.5333 85.2234 37.43 85.6834 37.43C86.1767 37.43 86.62 37.5467 87.0134 37.78C87.4067 38.0133 87.7167 38.3433 87.9434 38.77C88.17 39.19 88.2834 39.68 88.2834 40.24C88.2834 40.7933 88.17 41.2867 87.9434 41.72C87.7167 42.1533 87.4034 42.49 87.0034 42.73C86.61 42.97 86.17 43.09 85.6834 43.09C85.21 43.09 84.7934 42.9867 84.4334 42.78C84.08 42.5733 83.8134 42.31 83.6334 41.99V43H82.7234V35.6H83.6334V38.54ZM87.3534 40.24C87.3534 39.8267 87.27 39.4667 87.1034 39.16C86.9367 38.8533 86.71 38.62 86.4234 38.46C86.1434 38.3 85.8334 38.22 85.4934 38.22C85.16 38.22 84.85 38.3033 84.5634 38.47C84.2834 38.63 84.0567 38.8667 83.8834 39.18C83.7167 39.4867 83.6334 39.8433 83.6334 40.25C83.6334 40.6633 83.7167 41.0267 83.8834 41.34C84.0567 41.6467 84.2834 41.8833 84.5634 42.05C84.85 42.21 85.16 42.29 85.4934 42.29C85.8334 42.29 86.1434 42.21 86.4234 42.05C86.71 41.8833 86.9367 41.6467 87.1034 41.34C87.27 41.0267 87.3534 40.66 87.3534 40.24ZM94.3889 40.05C94.3889 40.2233 94.3789 40.4067 94.3589 40.6H89.9789C90.0122 41.14 90.1955 41.5633 90.5289 41.87C90.8689 42.17 91.2789 42.32 91.7589 42.32C92.1522 42.32 92.4789 42.23 92.7389 42.05C93.0055 41.8633 93.1922 41.6167 93.2989 41.31H94.2789C94.1322 41.8367 93.8389 42.2667 93.3989 42.6C92.9589 42.9267 92.4122 43.09 91.7589 43.09C91.2389 43.09 90.7722 42.9733 90.3589 42.74C89.9522 42.5067 89.6322 42.1767 89.3989 41.75C89.1655 41.3167 89.0489 40.8167 89.0489 40.25C89.0489 39.6833 89.1622 39.1867 89.3889 38.76C89.6155 38.3333 89.9322 38.0067 90.3389 37.78C90.7522 37.5467 91.2255 37.43 91.7589 37.43C92.2789 37.43 92.7389 37.5433 93.1389 37.77C93.5389 37.9967 93.8455 38.31 94.0589 38.71C94.2789 39.1033 94.3889 39.55 94.3889 40.05ZM93.4489 39.86C93.4489 39.5133 93.3722 39.2167 93.2189 38.97C93.0655 38.7167 92.8555 38.5267 92.5889 38.4C92.3289 38.2667 92.0389 38.2 91.7189 38.2C91.2589 38.2 90.8655 38.3467 90.5389 38.64C90.2189 38.9333 90.0355 39.34 89.9889 39.86H93.4489ZM96.4077 38.41C96.5677 38.0967 96.7944 37.8533 97.0877 37.68C97.3877 37.5067 97.7511 37.42 98.1777 37.42V38.36H97.9377C96.9177 38.36 96.4077 38.9133 96.4077 40.02V43H95.4977V37.52H96.4077V38.41ZM101.076 43.09C100.656 43.09 100.279 43.02 99.9459 42.88C99.6126 42.7333 99.3492 42.5333 99.1559 42.28C98.9626 42.02 98.8559 41.7233 98.8359 41.39H99.7759C99.8026 41.6633 99.9292 41.8867 100.156 42.06C100.389 42.2333 100.693 42.32 101.066 42.32C101.413 42.32 101.686 42.2433 101.886 42.09C102.086 41.9367 102.186 41.7433 102.186 41.51C102.186 41.27 102.079 41.0933 101.866 40.98C101.653 40.86 101.323 40.7433 100.876 40.63C100.469 40.5233 100.136 40.4167 99.8759 40.31C99.6226 40.1967 99.4026 40.0333 99.2159 39.82C99.0359 39.6 98.9459 39.3133 98.9459 38.96C98.9459 38.68 99.0292 38.4233 99.1959 38.19C99.3626 37.9567 99.5992 37.7733 99.9059 37.64C100.213 37.5 100.563 37.43 100.956 37.43C101.563 37.43 102.053 37.5833 102.426 37.89C102.799 38.1967 102.999 38.6167 103.026 39.15H102.116C102.096 38.8633 101.979 38.6333 101.766 38.46C101.559 38.2867 101.279 38.2 100.926 38.2C100.599 38.2 100.339 38.27 100.146 38.41C99.9526 38.55 99.8559 38.7333 99.8559 38.96C99.8559 39.14 99.9126 39.29 100.026 39.41C100.146 39.5233 100.293 39.6167 100.466 39.69C100.646 39.7567 100.893 39.8333 101.206 39.92C101.599 40.0267 101.919 40.1333 102.166 40.24C102.413 40.34 102.623 40.4933 102.796 40.7C102.976 40.9067 103.069 41.1767 103.076 41.51C103.076 41.81 102.993 42.08 102.826 42.32C102.659 42.56 102.423 42.75 102.116 42.89C101.816 43.0233 101.469 43.09 101.076 43.09ZM106.988 37.42C107.402 37.42 107.775 37.51 108.108 37.69C108.442 37.8633 108.702 38.1267 108.888 38.48C109.082 38.8333 109.178 39.2633 109.178 39.77V43H108.278V39.9C108.278 39.3533 108.142 38.9367 107.868 38.65C107.595 38.3567 107.222 38.21 106.748 38.21C106.268 38.21 105.885 38.36 105.598 38.66C105.318 38.96 105.178 39.3967 105.178 39.97V43H104.268V35.6H105.178V38.3C105.358 38.02 105.605 37.8033 105.918 37.65C106.238 37.4967 106.595 37.42 106.988 37.42ZM111.042 36.63C110.869 36.63 110.722 36.57 110.602 36.45C110.482 36.33 110.422 36.1833 110.422 36.01C110.422 35.8367 110.482 35.69 110.602 35.57C110.722 35.45 110.869 35.39 111.042 35.39C111.209 35.39 111.349 35.45 111.462 35.57C111.582 35.69 111.642 35.8367 111.642 36.01C111.642 36.1833 111.582 36.33 111.462 36.45C111.349 36.57 111.209 36.63 111.042 36.63ZM111.482 37.52V43H110.572V37.52H111.482ZM113.851 38.53C114.031 38.2167 114.298 37.9567 114.651 37.75C115.011 37.5367 115.428 37.43 115.901 37.43C116.388 37.43 116.828 37.5467 117.221 37.78C117.621 38.0133 117.934 38.3433 118.161 38.77C118.388 39.19 118.501 39.68 118.501 40.24C118.501 40.7933 118.388 41.2867 118.161 41.72C117.934 42.1533 117.621 42.49 117.221 42.73C116.828 42.97 116.388 43.09 115.901 43.09C115.434 43.09 115.021 42.9867 114.661 42.78C114.308 42.5667 114.038 42.3033 113.851 41.99V45.6H112.941V37.52H113.851V38.53ZM117.571 40.24C117.571 39.8267 117.488 39.4667 117.321 39.16C117.154 38.8533 116.928 38.62 116.641 38.46C116.361 38.3 116.051 38.22 115.711 38.22C115.378 38.22 115.068 38.3033 114.781 38.47C114.501 38.63 114.274 38.8667 114.101 39.18C113.934 39.4867 113.851 39.8433 113.851 40.25C113.851 40.6633 113.934 41.0267 114.101 41.34C114.274 41.6467 114.501 41.8833 114.781 42.05C115.068 42.21 115.378 42.29 115.711 42.29C116.051 42.29 116.361 42.21 116.641 42.05C116.928 41.8833 117.154 41.6467 117.321 41.34C117.488 41.0267 117.571 40.66 117.571 40.24Z" fill="#354259"/>
<rect x="224.5" y="81.5" width="100" height="22" rx="11" stroke="#71026E"/>
<path d="M247.112 92.692C247.416 92.74 247.692 92.864 247.94 93.064C248.196 93.264 248.396 93.512 248.54 93.808C248.692 94.104 248.768 94.42 248.768 94.756C248.768 95.18 248.66 95.564 248.444 95.908C248.228 96.244 247.912 96.512 247.496 96.712C247.088 96.904 246.604 97 246.044 97H242.924V88.636H245.924C246.492 88.636 246.976 88.732 247.376 88.924C247.776 89.108 248.076 89.36 248.276 89.68C248.476 90 248.576 90.36 248.576 90.76C248.576 91.256 248.44 91.668 248.168 91.996C247.904 92.316 247.552 92.548 247.112 92.692ZM244.016 92.248H245.852C246.364 92.248 246.76 92.128 247.04 91.888C247.32 91.648 247.46 91.316 247.46 90.892C247.46 90.468 247.32 90.136 247.04 89.896C246.76 89.656 246.356 89.536 245.828 89.536H244.016V92.248ZM245.948 96.1C246.492 96.1 246.916 95.972 247.22 95.716C247.524 95.46 247.676 95.104 247.676 94.648C247.676 94.184 247.516 93.82 247.196 93.556C246.876 93.284 246.448 93.148 245.912 93.148H244.016V96.1H245.948ZM256.023 90.424V97H254.931V96.028C254.723 96.364 254.431 96.628 254.055 96.82C253.687 97.004 253.279 97.096 252.831 97.096C252.319 97.096 251.859 96.992 251.451 96.784C251.043 96.568 250.719 96.248 250.479 95.824C250.247 95.4 250.131 94.884 250.131 94.276V90.424H251.211V94.132C251.211 94.78 251.375 95.28 251.703 95.632C252.031 95.976 252.479 96.148 253.047 96.148C253.631 96.148 254.091 95.968 254.427 95.608C254.763 95.248 254.931 94.724 254.931 94.036V90.424H256.023ZM263.439 90.424L259.479 100.096H258.351L259.647 96.928L256.995 90.424H258.207L260.271 95.752L262.311 90.424H263.439ZM274.127 97H273.035L268.643 90.34V97H267.551V88.624H268.643L273.035 95.272V88.624H274.127V97ZM278.764 97.108C278.148 97.108 277.588 96.968 277.084 96.688C276.588 96.408 276.196 96.012 275.908 95.5C275.628 94.98 275.488 94.38 275.488 93.7C275.488 93.028 275.632 92.436 275.92 91.924C276.216 91.404 276.616 91.008 277.12 90.736C277.624 90.456 278.188 90.316 278.812 90.316C279.436 90.316 280 90.456 280.504 90.736C281.008 91.008 281.404 91.4 281.692 91.912C281.988 92.424 282.136 93.02 282.136 93.7C282.136 94.38 281.984 94.98 281.68 95.5C281.384 96.012 280.98 96.408 280.468 96.688C279.956 96.968 279.388 97.108 278.764 97.108ZM278.764 96.148C279.156 96.148 279.524 96.056 279.868 95.872C280.212 95.688 280.488 95.412 280.696 95.044C280.912 94.676 281.02 94.228 281.02 93.7C281.02 93.172 280.916 92.724 280.708 92.356C280.5 91.988 280.228 91.716 279.892 91.54C279.556 91.356 279.192 91.264 278.8 91.264C278.4 91.264 278.032 91.356 277.696 91.54C277.368 91.716 277.104 91.988 276.904 92.356C276.704 92.724 276.604 93.172 276.604 93.7C276.604 94.236 276.7 94.688 276.892 95.056C277.092 95.424 277.356 95.7 277.684 95.884C278.012 96.06 278.372 96.148 278.764 96.148ZM292.24 90.424L290.188 97H289.06L287.476 91.78L285.892 97H284.764L282.7 90.424H283.816L285.328 95.944L286.96 90.424H288.076L289.672 95.956L291.16 90.424H292.24Z" fill="#71026E"/>
<path fill-rule="evenodd" clip-rule="evenodd" d="M302.138 89.6866L304.955 92.6866C305.129 92.8721 305.126 93.1371 304.948 93.3201L302.032 96.3201C301.916 96.4386 301.75 96.5001 301.583 96.5001C301.452 96.5001 301.319 96.4621 301.21 96.3841C300.962 96.2076 300.929 95.8921 301.136 95.6801L303.747 92.9946L301.229 90.3136C301.027 90.0986 301.067 89.7836 301.318 89.6106C301.569 89.4371 301.936 89.4716 302.138 89.6866ZM297.235 89.6108C297.486 89.4378 297.852 89.4718 298.055 89.6868L300.871 92.6868C301.045 92.8723 301.043 93.1373 300.865 93.3203L297.948 96.3203C297.833 96.4388 297.667 96.5003 297.5 96.5003C297.368 96.5003 297.236 96.4623 297.127 96.3843C296.879 96.2078 296.846 95.8923 297.052 95.6803L299.663 92.9948L297.145 90.3138C296.944 90.0988 296.984 89.7838 297.235 89.6108Z" fill="#71026E"/>
<path d="M19 31H56" stroke="#9B4DAC" stroke-linecap="round"/>
<path d="M74 31H111" stroke="#9B4DAC" stroke-linecap="round"/>
<circle cx="65" cy="31" r="1" fill="#B64EB3"/>
<path d="M10.888 80V71.6H12.064L15.088 77.456L18.088 71.6H19.276V80H18.268V73.4L15.46 78.8H14.704L11.896 73.412V80H10.888ZM23.5718 80.144C23.0038 80.144 22.4998 80.016 22.0598 79.76C21.6198 79.496 21.2718 79.132 21.0158 78.668C20.7678 78.204 20.6438 77.656 20.6438 77.024C20.6438 76.4 20.7678 75.856 21.0158 75.392C21.2638 74.92 21.6078 74.556 22.0478 74.3C22.4958 74.036 23.0118 73.904 23.5958 73.904C24.1718 73.904 24.6678 74.036 25.0838 74.3C25.5078 74.556 25.8318 74.896 26.0558 75.32C26.2798 75.744 26.3918 76.2 26.3918 76.688C26.3918 76.776 26.3878 76.864 26.3798 76.952C26.3798 77.04 26.3798 77.14 26.3798 77.252H21.6398C21.6638 77.708 21.7678 78.088 21.9518 78.392C22.1438 78.688 22.3798 78.912 22.6598 79.064C22.9478 79.216 23.2518 79.292 23.5718 79.292C23.9878 79.292 24.3358 79.196 24.6158 79.004C24.8958 78.812 25.0998 78.552 25.2278 78.224H26.2238C26.0638 78.776 25.7558 79.236 25.2998 79.604C24.8518 79.964 24.2758 80.144 23.5718 80.144ZM23.5718 74.756C23.0918 74.756 22.6638 74.904 22.2878 75.2C21.9198 75.488 21.7078 75.912 21.6518 76.472H25.3958C25.3718 75.936 25.1878 75.516 24.8438 75.212C24.4998 74.908 24.0758 74.756 23.5718 74.756ZM27.6356 80V74.048H28.5476L28.6196 74.912C28.8116 74.592 29.0676 74.344 29.3876 74.168C29.7076 73.992 30.0676 73.904 30.4676 73.904C30.9396 73.904 31.3436 74 31.6796 74.192C32.0236 74.384 32.2876 74.676 32.4716 75.068C32.6796 74.708 32.9636 74.424 33.3236 74.216C33.6916 74.008 34.0876 73.904 34.5116 73.904C35.2236 73.904 35.7916 74.12 36.2156 74.552C36.6396 74.976 36.8516 75.632 36.8516 76.52V80H35.8556V76.628C35.8556 76.012 35.7316 75.548 35.4836 75.236C35.2356 74.924 34.8796 74.768 34.4156 74.768C33.9356 74.768 33.5356 74.956 33.2156 75.332C32.9036 75.7 32.7476 76.228 32.7476 76.916V80H31.7396V76.628C31.7396 76.012 31.6156 75.548 31.3676 75.236C31.1196 74.924 30.7636 74.768 30.2996 74.768C29.8276 74.768 29.4316 74.956 29.1116 75.332C28.7996 75.7 28.6436 76.228 28.6436 76.916V80H27.6356ZM41.4576 80.144C40.9696 80.144 40.5336 80.044 40.1496 79.844C39.7736 79.644 39.4856 79.364 39.2856 79.004L39.1896 80H38.2776V71.36H39.2856V75.032C39.4776 74.744 39.7496 74.484 40.1016 74.252C40.4616 74.02 40.9176 73.904 41.4696 73.904C42.0616 73.904 42.5776 74.04 43.0176 74.312C43.4576 74.584 43.7976 74.956 44.0376 75.428C44.2856 75.9 44.4096 76.436 44.4096 77.036C44.4096 77.636 44.2856 78.172 44.0376 78.644C43.7976 79.108 43.4536 79.476 43.0056 79.748C42.5656 80.012 42.0496 80.144 41.4576 80.144ZM41.3496 79.268C41.7496 79.268 42.1016 79.176 42.4056 78.992C42.7096 78.8 42.9496 78.536 43.1256 78.2C43.3016 77.864 43.3896 77.472 43.3896 77.024C43.3896 76.576 43.3016 76.184 43.1256 75.848C42.9496 75.512 42.7096 75.252 42.4056 75.068C42.1016 74.876 41.7496 74.78 41.3496 74.78C40.9496 74.78 40.5976 74.876 40.2936 75.068C39.9896 75.252 39.7496 75.512 39.5736 75.848C39.3976 76.184 39.3096 76.576 39.3096 77.024C39.3096 77.472 39.3976 77.864 39.5736 78.2C39.7496 78.536 39.9896 78.8 40.2936 78.992C40.5976 79.176 40.9496 79.268 41.3496 79.268ZM48.3965 80.144C47.8285 80.144 47.3245 80.016 46.8845 79.76C46.4445 79.496 46.0965 79.132 45.8405 78.668C45.5925 78.204 45.4685 77.656 45.4685 77.024C45.4685 76.4 45.5925 75.856 45.8405 75.392C46.0885 74.92 46.4325 74.556 46.8725 74.3C47.3205 74.036 47.8365 73.904 48.4205 73.904C48.9965 73.904 49.4925 74.036 49.9085 74.3C50.3325 74.556 50.6565 74.896 50.8805 75.32C51.1045 75.744 51.2165 76.2 51.2165 76.688C51.2165 76.776 51.2125 76.864 51.2045 76.952C51.2045 77.04 51.2045 77.14 51.2045 77.252H46.4645C46.4885 77.708 46.5925 78.088 46.7765 78.392C46.9685 78.688 47.2045 78.912 47.4845 79.064C47.7725 79.216 48.0765 79.292 48.3965 79.292C48.8125 79.292 49.1605 79.196 49.4405 79.004C49.7205 78.812 49.9245 78.552 50.0525 78.224H51.0485C50.8885 78.776 50.5805 79.236 50.1245 79.604C49.6765 79.964 49.1005 80.144 48.3965 80.144ZM48.3965 74.756C47.9165 74.756 47.4885 74.904 47.1125 75.2C46.7445 75.488 46.5325 75.912 46.4765 76.472H50.2205C50.1965 75.936 50.0125 75.516 49.6685 75.212C49.3245 74.908 48.9005 74.756 48.3965 74.756ZM52.4602 80V74.048H53.3722L53.4562 75.188C53.6402 74.796 53.9202 74.484 54.2962 74.252C54.6722 74.02 55.1362 73.904 55.6882 73.904V74.96H55.4122C55.0602 74.96 54.7362 75.024 54.4402 75.152C54.1442 75.272 53.9082 75.48 53.7322 75.776C53.5562 76.072 53.4682 76.48 53.4682 77V80H52.4602ZM59.0073 80.144C58.2953 80.144 57.7033 79.964 57.2313 79.604C56.7593 79.244 56.4833 78.756 56.4033 78.14H57.4353C57.4993 78.452 57.6633 78.724 57.9273 78.956C58.1993 79.18 58.5633 79.292 59.0193 79.292C59.4433 79.292 59.7553 79.204 59.9553 79.028C60.1553 78.844 60.2553 78.628 60.2553 78.38C60.2553 78.02 60.1233 77.78 59.8593 77.66C59.6033 77.54 59.2393 77.432 58.7673 77.336C58.4473 77.272 58.1273 77.18 57.8073 77.06C57.4873 76.94 57.2193 76.772 57.0033 76.556C56.7873 76.332 56.6793 76.04 56.6793 75.68C56.6793 75.16 56.8713 74.736 57.2553 74.408C57.6473 74.072 58.1753 73.904 58.8393 73.904C59.4713 73.904 59.9873 74.064 60.3873 74.384C60.7953 74.696 61.0313 75.144 61.0953 75.728H60.0993C60.0593 75.424 59.9273 75.188 59.7033 75.02C59.4873 74.844 59.1953 74.756 58.8273 74.756C58.4673 74.756 58.1873 74.832 57.9873 74.984C57.7953 75.136 57.6993 75.336 57.6993 75.584C57.6993 75.824 57.8233 76.012 58.0713 76.148C58.3273 76.284 58.6713 76.4 59.1033 76.496C59.4713 76.576 59.8193 76.676 60.1473 76.796C60.4833 76.908 60.7553 77.08 60.9633 77.312C61.1793 77.536 61.2873 77.864 61.2873 78.296C61.2953 78.832 61.0913 79.276 60.6753 79.628C60.2673 79.972 59.7113 80.144 59.0073 80.144ZM67.9984 80.144C67.2864 80.144 66.6944 79.964 66.2224 79.604C65.7504 79.244 65.4744 78.756 65.3944 78.14H66.4264C66.4904 78.452 66.6544 78.724 66.9184 78.956C67.1904 79.18 67.5544 79.292 68.0104 79.292C68.4344 79.292 68.7464 79.204 68.9464 79.028C69.1464 78.844 69.2464 78.628 69.2464 78.38C69.2464 78.02 69.1144 77.78 68.8504 77.66C68.5944 77.54 68.2304 77.432 67.7584 77.336C67.4384 77.272 67.1184 77.18 66.7984 77.06C66.4784 76.94 66.2104 76.772 65.9944 76.556C65.7784 76.332 65.6704 76.04 65.6704 75.68C65.6704 75.16 65.8624 74.736 66.2464 74.408C66.6384 74.072 67.1664 73.904 67.8304 73.904C68.4624 73.904 68.9784 74.064 69.3784 74.384C69.7864 74.696 70.0224 75.144 70.0864 75.728H69.0904C69.0504 75.424 68.9184 75.188 68.6944 75.02C68.4784 74.844 68.1864 74.756 67.8184 74.756C67.4584 74.756 67.1784 74.832 66.9784 74.984C66.7864 75.136 66.6904 75.336 66.6904 75.584C66.6904 75.824 66.8144 76.012 67.0624 76.148C67.3184 76.284 67.6624 76.4 68.0944 76.496C68.4624 76.576 68.8104 76.676 69.1384 76.796C69.4744 76.908 69.7464 77.08 69.9544 77.312C70.1704 77.536 70.2784 77.864 70.2784 78.296C70.2864 78.832 70.0824 79.276 69.6664 79.628C69.2584 79.972 68.7024 80.144 67.9984 80.144ZM73.6061 80.144C73.1101 80.144 72.6981 80.06 72.3701 79.892C72.0421 79.724 71.7981 79.5 71.6381 79.22C71.4781 78.94 71.3981 78.636 71.3981 78.308C71.3981 77.7 71.6301 77.232 72.0941 76.904C72.5581 76.576 73.1901 76.412 73.9901 76.412H75.5981V76.34C75.5981 75.82 75.4621 75.428 75.1901 75.164C74.9181 74.892 74.5541 74.756 74.0981 74.756C73.7061 74.756 73.3661 74.856 73.0781 75.056C72.7981 75.248 72.6221 75.532 72.5501 75.908H71.5181C71.5581 75.476 71.7021 75.112 71.9501 74.816C72.2061 74.52 72.5221 74.296 72.8981 74.144C73.2741 73.984 73.6741 73.904 74.0981 73.904C74.9301 73.904 75.5541 74.128 75.9701 74.576C76.3941 75.016 76.6061 75.604 76.6061 76.34V80H75.7061L75.6461 78.932C75.4781 79.268 75.2301 79.556 74.9021 79.796C74.5821 80.028 74.1501 80.144 73.6061 80.144ZM73.7621 79.292C74.1461 79.292 74.4741 79.192 74.7461 78.992C75.0261 78.792 75.2381 78.532 75.3821 78.212C75.5261 77.892 75.5981 77.556 75.5981 77.204V77.192H74.0741C73.4821 77.192 73.0621 77.296 72.8141 77.504C72.5741 77.704 72.4541 77.956 72.4541 78.26C72.4541 78.572 72.5661 78.824 72.7901 79.016C73.0221 79.2 73.3461 79.292 73.7621 79.292ZM79.5194 80L77.2634 74.048H78.3194L80.1074 79.028L81.9074 74.048H82.9394L80.6834 80H79.5194ZM86.3402 80.144C85.7722 80.144 85.2682 80.016 84.8282 79.76C84.3882 79.496 84.0402 79.132 83.7842 78.668C83.5362 78.204 83.4122 77.656 83.4122 77.024C83.4122 76.4 83.5362 75.856 83.7842 75.392C84.0322 74.92 84.3762 74.556 84.8162 74.3C85.2642 74.036 85.7802 73.904 86.3642 73.904C86.9402 73.904 87.4362 74.036 87.8522 74.3C88.2762 74.556 88.6002 74.896 88.8242 75.32C89.0482 75.744 89.1602 76.2 89.1602 76.688C89.1602 76.776 89.1562 76.864 89.1482 76.952C89.1482 77.04 89.1482 77.14 89.1482 77.252H84.4082C84.4322 77.708 84.5362 78.088 84.7202 78.392C84.9122 78.688 85.1482 78.912 85.4282 79.064C85.7162 79.216 86.0202 79.292 86.3402 79.292C86.7562 79.292 87.1042 79.196 87.3842 79.004C87.6642 78.812 87.8682 78.552 87.9962 78.224H88.9922C88.8322 78.776 88.5242 79.236 88.0682 79.604C87.6202 79.964 87.0442 80.144 86.3402 80.144ZM86.3402 74.756C85.8602 74.756 85.4322 74.904 85.0562 75.2C84.6882 75.488 84.4762 75.912 84.4202 76.472H88.1642C88.1402 75.936 87.9562 75.516 87.6122 75.212C87.2682 74.908 86.8442 74.756 86.3402 74.756ZM93.4874 80V74.048H94.3994L94.4714 74.912C94.6634 74.592 94.9194 74.344 95.2394 74.168C95.5594 73.992 95.9194 73.904 96.3194 73.904C96.7914 73.904 97.1954 74 97.5314 74.192C97.8754 74.384 98.1394 74.676 98.3234 75.068C98.5314 74.708 98.8154 74.424 99.1754 74.216C99.5434 74.008 99.9394 73.904 100.363 73.904C101.075 73.904 101.643 74.12 102.067 74.552C102.491 74.976 102.703 75.632 102.703 76.52V80H101.707V76.628C101.707 76.012 101.583 75.548 101.335 75.236C101.087 74.924 100.731 74.768 100.267 74.768C99.7874 74.768 99.3874 74.956 99.0674 75.332C98.7554 75.7 98.5994 76.228 98.5994 76.916V80H97.5914V76.628C97.5914 76.012 97.4674 75.548 97.2194 75.236C96.9714 74.924 96.6154 74.768 96.1514 74.768C95.6794 74.768 95.2834 74.956 94.9634 75.332C94.6514 75.7 94.4954 76.228 94.4954 76.916V80H93.4874ZM106.841 80.144C106.281 80.144 105.777 80.016 105.329 79.76C104.881 79.504 104.525 79.144 104.261 78.68C104.005 78.208 103.877 77.656 103.877 77.024C103.877 76.392 104.009 75.844 104.273 75.38C104.537 74.908 104.893 74.544 105.341 74.288C105.797 74.032 106.305 73.904 106.865 73.904C107.425 73.904 107.929 74.032 108.377 74.288C108.825 74.544 109.177 74.908 109.433 75.38C109.697 75.844 109.829 76.392 109.829 77.024C109.829 77.656 109.697 78.208 109.433 78.68C109.169 79.144 108.809 79.504 108.353 79.76C107.905 80.016 107.401 80.144 106.841 80.144ZM106.841 79.28C107.185 79.28 107.505 79.196 107.801 79.028C108.097 78.86 108.337 78.608 108.521 78.272C108.705 77.936 108.797 77.52 108.797 77.024C108.797 76.528 108.705 76.112 108.521 75.776C108.345 75.44 108.109 75.188 107.813 75.02C107.517 74.852 107.201 74.768 106.865 74.768C106.521 74.768 106.201 74.852 105.905 75.02C105.609 75.188 105.369 75.44 105.185 75.776C105.001 76.112 104.909 76.528 104.909 77.024C104.909 77.52 105.001 77.936 105.185 78.272C105.369 78.608 105.605 78.86 105.893 79.028C106.189 79.196 106.505 79.28 106.841 79.28ZM111.139 80V74.048H112.051L112.135 75.188C112.319 74.796 112.599 74.484 112.975 74.252C113.351 74.02 113.815 73.904 114.367 73.904V74.96H114.091C113.739 74.96 113.415 75.024 113.119 75.152C112.823 75.272 112.587 75.48 112.411 75.776C112.235 76.072 112.147 76.48 112.147 77V80H111.139ZM117.859 80.144C117.291 80.144 116.787 80.016 116.347 79.76C115.907 79.496 115.559 79.132 115.303 78.668C115.055 78.204 114.931 77.656 114.931 77.024C114.931 76.4 115.055 75.856 115.303 75.392C115.551 74.92 115.895 74.556 116.335 74.3C116.783 74.036 117.299 73.904 117.883 73.904C118.459 73.904 118.955 74.036 119.371 74.3C119.795 74.556 120.119 74.896 120.343 75.32C120.567 75.744 120.679 76.2 120.679 76.688C120.679 76.776 120.675 76.864 120.667 76.952C120.667 77.04 120.667 77.14 120.667 77.252H115.927C115.951 77.708 116.055 78.088 116.239 78.392C116.431 78.688 116.667 78.912 116.947 79.064C117.235 79.216 117.539 79.292 117.859 79.292C118.275 79.292 118.623 79.196 118.903 79.004C119.183 78.812 119.387 78.552 119.515 78.224H120.511C120.351 78.776 120.043 79.236 119.587 79.604C119.139 79.964 118.563 80.144 117.859 80.144ZM117.859 74.756C117.379 74.756 116.951 74.904 116.575 75.2C116.207 75.488 115.995 75.912 115.939 76.472H119.683C119.659 75.936 119.475 75.516 119.131 75.212C118.787 74.908 118.363 74.756 117.859 74.756ZM127.358 80C126.814 80 126.386 79.868 126.074 79.604C125.762 79.34 125.606 78.864 125.606 78.176V74.9H124.574V74.048H125.606L125.738 72.62H126.614V74.048H128.366V74.9H126.614V78.176C126.614 78.552 126.69 78.808 126.842 78.944C126.994 79.072 127.262 79.136 127.646 79.136H128.27V80H127.358ZM129.555 80V71.36H130.563V75.068C130.763 74.7 131.047 74.416 131.415 74.216C131.783 74.008 132.183 73.904 132.615 73.904C133.303 73.904 133.855 74.12 134.271 74.552C134.687 74.976 134.895 75.632 134.895 76.52V80H133.899V76.628C133.899 75.388 133.399 74.768 132.399 74.768C131.879 74.768 131.443 74.956 131.091 75.332C130.739 75.7 130.563 76.228 130.563 76.916V80H129.555ZM138.31 80.144C137.814 80.144 137.402 80.06 137.074 79.892C136.746 79.724 136.502 79.5 136.342 79.22C136.182 78.94 136.102 78.636 136.102 78.308C136.102 77.7 136.334 77.232 136.798 76.904C137.262 76.576 137.894 76.412 138.694 76.412H140.302V76.34C140.302 75.82 140.166 75.428 139.894 75.164C139.622 74.892 139.258 74.756 138.802 74.756C138.41 74.756 138.07 74.856 137.782 75.056C137.502 75.248 137.326 75.532 137.254 75.908H136.222C136.262 75.476 136.406 75.112 136.654 74.816C136.91 74.52 137.226 74.296 137.602 74.144C137.978 73.984 138.378 73.904 138.802 73.904C139.634 73.904 140.258 74.128 140.674 74.576C141.098 75.016 141.31 75.604 141.31 76.34V80H140.41L140.35 78.932C140.182 79.268 139.934 79.556 139.606 79.796C139.286 80.028 138.854 80.144 138.31 80.144ZM138.466 79.292C138.85 79.292 139.178 79.192 139.45 78.992C139.73 78.792 139.942 78.532 140.086 78.212C140.23 77.892 140.302 77.556 140.302 77.204V77.192H138.778C138.186 77.192 137.766 77.296 137.518 77.504C137.278 77.704 137.158 77.956 137.158 78.26C137.158 78.572 137.27 78.824 137.494 79.016C137.726 79.2 138.05 79.292 138.466 79.292ZM142.729 80V74.048H143.641L143.701 75.116C143.893 74.74 144.169 74.444 144.529 74.228C144.889 74.012 145.297 73.904 145.753 73.904C146.457 73.904 147.017 74.12 147.433 74.552C147.857 74.976 148.069 75.632 148.069 76.52V80H147.061V76.628C147.061 75.388 146.549 74.768 145.525 74.768C145.013 74.768 144.585 74.956 144.241 75.332C143.905 75.7 143.737 76.228 143.737 76.916V80H142.729ZM154.832 81.044V80.12C154.048 80.032 153.428 79.752 152.972 79.28C152.516 78.808 152.288 78.208 152.288 77.48H153.344C153.344 77.904 153.468 78.284 153.716 78.62C153.972 78.948 154.344 79.16 154.832 79.256V76.004C154.776 75.988 154.716 75.972 154.652 75.956C154.596 75.932 154.54 75.912 154.484 75.896C153.836 75.672 153.356 75.396 153.044 75.068C152.732 74.732 152.576 74.296 152.576 73.76C152.568 73.136 152.764 72.616 153.164 72.2C153.572 71.784 154.128 71.544 154.832 71.48V70.508H155.66V71.48C156.332 71.56 156.868 71.812 157.268 72.236C157.668 72.66 157.872 73.176 157.88 73.784H156.824C156.824 73.488 156.728 73.204 156.536 72.932C156.344 72.652 156.052 72.464 155.66 72.368V75.272C155.724 75.288 155.788 75.308 155.852 75.332C155.916 75.356 155.984 75.376 156.056 75.392C156.456 75.536 156.816 75.704 157.136 75.896C157.456 76.088 157.704 76.336 157.88 76.64C158.064 76.944 158.156 77.332 158.156 77.804C158.156 78.18 158.064 78.536 157.88 78.872C157.696 79.208 157.416 79.492 157.04 79.724C156.672 79.956 156.212 80.092 155.66 80.132V81.044H154.832ZM153.62 73.664C153.62 74.032 153.728 74.312 153.944 74.504C154.16 74.688 154.456 74.848 154.832 74.984V72.344C154.472 72.4 154.18 72.544 153.956 72.776C153.732 73 153.62 73.296 153.62 73.664ZM157.112 77.864C157.112 77.4 156.976 77.056 156.704 76.832C156.432 76.608 156.084 76.424 155.66 76.28V79.28C156.124 79.224 156.48 79.064 156.728 78.8C156.984 78.536 157.112 78.224 157.112 77.864ZM160.321 80V72.728L158.965 73.028V72.332L160.657 71.6H161.341V80H160.321ZM166.298 80.144C165.554 80.144 164.91 79.964 164.366 79.604C163.83 79.236 163.418 78.728 163.13 78.08C162.842 77.424 162.698 76.664 162.698 75.8C162.698 74.936 162.842 74.18 163.13 73.532C163.418 72.876 163.83 72.368 164.366 72.008C164.91 71.64 165.554 71.456 166.298 71.456C167.042 71.456 167.682 71.64 168.218 72.008C168.754 72.368 169.166 72.876 169.454 73.532C169.742 74.18 169.886 74.936 169.886 75.8C169.886 76.664 169.742 77.424 169.454 78.08C169.166 78.728 168.754 79.236 168.218 79.604C167.682 79.964 167.042 80.144 166.298 80.144ZM166.298 79.256C166.786 79.256 167.222 79.12 167.606 78.848C167.998 78.568 168.302 78.172 168.518 77.66C168.742 77.14 168.854 76.52 168.854 75.8C168.854 75.08 168.742 74.464 168.518 73.952C168.302 73.44 167.998 73.048 167.606 72.776C167.222 72.496 166.786 72.356 166.298 72.356C165.802 72.356 165.362 72.496 164.978 72.776C164.594 73.048 164.29 73.44 164.066 73.952C163.842 74.464 163.73 75.08 163.73 75.8C163.73 76.52 163.842 77.14 164.066 77.66C164.29 78.172 164.594 78.568 164.978 78.848C165.362 79.12 165.802 79.256 166.298 79.256ZM10.828 96.64V88.048H11.74L11.836 89.032C12.028 88.744 12.3 88.484 12.652 88.252C13.012 88.02 13.468 87.904 14.02 87.904C14.612 87.904 15.128 88.04 15.568 88.312C16.008 88.584 16.348 88.956 16.588 89.428C16.836 89.9 16.96 90.436 16.96 91.036C16.96 91.636 16.836 92.172 16.588 92.644C16.348 93.108 16.004 93.476 15.556 93.748C15.116 94.012 14.6 94.144 14.008 94.144C13.52 94.144 13.084 94.044 12.7 93.844C12.324 93.644 12.036 93.364 11.836 93.004V96.64H10.828ZM13.9 93.268C14.3 93.268 14.652 93.176 14.956 92.992C15.26 92.8 15.5 92.536 15.676 92.2C15.852 91.864 15.94 91.472 15.94 91.024C15.94 90.576 15.852 90.184 15.676 89.848C15.5 89.512 15.26 89.252 14.956 89.068C14.652 88.876 14.3 88.78 13.9 88.78C13.5 88.78 13.148 88.876 12.844 89.068C12.54 89.252 12.3 89.512 12.124 89.848C11.948 90.184 11.86 90.576 11.86 91.024C11.86 91.472 11.948 91.864 12.124 92.2C12.3 92.536 12.54 92.8 12.844 92.992C13.148 93.176 13.5 93.268 13.9 93.268ZM20.9468 94.144C20.3788 94.144 19.8748 94.016 19.4348 93.76C18.9948 93.496 18.6468 93.132 18.3908 92.668C18.1428 92.204 18.0188 91.656 18.0188 91.024C18.0188 90.4 18.1428 89.856 18.3908 89.392C18.6388 88.92 18.9828 88.556 19.4228 88.3C19.8708 88.036 20.3868 87.904 20.9708 87.904C21.5468 87.904 22.0428 88.036 22.4588 88.3C22.8828 88.556 23.2068 88.896 23.4308 89.32C23.6548 89.744 23.7668 90.2 23.7668 90.688C23.7668 90.776 23.7628 90.864 23.7548 90.952C23.7548 91.04 23.7548 91.14 23.7548 91.252H19.0148C19.0388 91.708 19.1428 92.088 19.3268 92.392C19.5188 92.688 19.7548 92.912 20.0348 93.064C20.3228 93.216 20.6268 93.292 20.9468 93.292C21.3628 93.292 21.7108 93.196 21.9908 93.004C22.2708 92.812 22.4748 92.552 22.6028 92.224H23.5988C23.4388 92.776 23.1308 93.236 22.6748 93.604C22.2268 93.964 21.6508 94.144 20.9468 94.144ZM20.9468 88.756C20.4668 88.756 20.0388 88.904 19.6628 89.2C19.2948 89.488 19.0828 89.912 19.0268 90.472H22.7708C22.7468 89.936 22.5628 89.516 22.2188 89.212C21.8748 88.908 21.4508 88.756 20.9468 88.756ZM25.0106 94V88.048H25.9226L26.0066 89.188C26.1906 88.796 26.4706 88.484 26.8466 88.252C27.2226 88.02 27.6866 87.904 28.2386 87.904V88.96H27.9626C27.6106 88.96 27.2866 89.024 26.9906 89.152C26.6946 89.272 26.4586 89.48 26.2826 89.776C26.1066 90.072 26.0186 90.48 26.0186 91V94H25.0106ZM32.3611 94V88.048H33.2731L33.3451 88.912C33.5371 88.592 33.7931 88.344 34.1131 88.168C34.4331 87.992 34.7931 87.904 35.1931 87.904C35.6651 87.904 36.0691 88 36.4051 88.192C36.7491 88.384 37.0131 88.676 37.1971 89.068C37.4051 88.708 37.6891 88.424 38.0491 88.216C38.4171 88.008 38.8131 87.904 39.2371 87.904C39.9491 87.904 40.5171 88.12 40.9411 88.552C41.3651 88.976 41.5771 89.632 41.5771 90.52V94H40.5811V90.628C40.5811 90.012 40.4571 89.548 40.2091 89.236C39.9611 88.924 39.6051 88.768 39.1411 88.768C38.6611 88.768 38.2611 88.956 37.9411 89.332C37.6291 89.7 37.4731 90.228 37.4731 90.916V94H36.4651V90.628C36.4651 90.012 36.3411 89.548 36.0931 89.236C35.8451 88.924 35.4891 88.768 35.0251 88.768C34.5531 88.768 34.1571 88.956 33.8371 89.332C33.5251 89.7 33.3691 90.228 33.3691 90.916V94H32.3611ZM45.7152 94.144C45.1552 94.144 44.6512 94.016 44.2032 93.76C43.7552 93.504 43.3992 93.144 43.1352 92.68C42.8792 92.208 42.7512 91.656 42.7512 91.024C42.7512 90.392 42.8832 89.844 43.1472 89.38C43.4112 88.908 43.7672 88.544 44.2152 88.288C44.6712 88.032 45.1792 87.904 45.7392 87.904C46.2992 87.904 46.8032 88.032 47.2512 88.288C47.6992 88.544 48.0512 88.908 48.3072 89.38C48.5712 89.844 48.7032 90.392 48.7032 91.024C48.7032 91.656 48.5712 92.208 48.3072 92.68C48.0432 93.144 47.6832 93.504 47.2272 93.76C46.7792 94.016 46.2752 94.144 45.7152 94.144ZM45.7152 93.28C46.0592 93.28 46.3792 93.196 46.6752 93.028C46.9712 92.86 47.2112 92.608 47.3952 92.272C47.5792 91.936 47.6712 91.52 47.6712 91.024C47.6712 90.528 47.5792 90.112 47.3952 89.776C47.2192 89.44 46.9832 89.188 46.6872 89.02C46.3912 88.852 46.0752 88.768 45.7392 88.768C45.3952 88.768 45.0752 88.852 44.7792 89.02C44.4832 89.188 44.2432 89.44 44.0592 89.776C43.8752 90.112 43.7832 90.528 43.7832 91.024C43.7832 91.52 43.8752 91.936 44.0592 92.272C44.2432 92.608 44.4792 92.86 44.7672 93.028C45.0632 93.196 45.3792 93.28 45.7152 93.28ZM50.0124 94V88.048H50.9244L50.9844 89.116C51.1764 88.74 51.4524 88.444 51.8124 88.228C52.1724 88.012 52.5804 87.904 53.0364 87.904C53.7404 87.904 54.3004 88.12 54.7164 88.552C55.1404 88.976 55.3524 89.632 55.3524 90.52V94H54.3444V90.628C54.3444 89.388 53.8324 88.768 52.8084 88.768C52.2964 88.768 51.8684 88.956 51.5244 89.332C51.1884 89.7 51.0204 90.228 51.0204 90.916V94H50.0124ZM59.1393 94C58.5953 94 58.1673 93.868 57.8553 93.604C57.5433 93.34 57.3873 92.864 57.3873 92.176V88.9H56.3553V88.048H57.3873L57.5193 86.62H58.3953V88.048H60.1473V88.9H58.3953V92.176C58.3953 92.552 58.4713 92.808 58.6233 92.944C58.7753 93.072 59.0433 93.136 59.4273 93.136H60.0513V94H59.1393ZM61.3356 94V85.36H62.3436V89.068C62.5436 88.7 62.8276 88.416 63.1956 88.216C63.5636 88.008 63.9636 87.904 64.3956 87.904C65.0836 87.904 65.6356 88.12 66.0516 88.552C66.4676 88.976 66.6756 89.632 66.6756 90.52V94H65.6796V90.628C65.6796 89.388 65.1796 88.768 64.1796 88.768C63.6596 88.768 63.2236 88.956 62.8716 89.332C62.5196 89.7 62.3436 90.228 62.3436 90.916V94H61.3356Z" fill="#9B0397"/>
<circle cx="274.782" cy="38.8458" r="25.7368" transform="rotate(-9.90923 274.782 38.8458)" fill="#9B4DAC"/>
<mask id="mask1_2191_80239" style="mask-type:alpha" maskUnits="userSpaceOnUse" x="249" y="13" width="52" height="52">
<circle cx="274.782" cy="38.8458" r="25.7368" transform="rotate(-9.90923 274.782 38.8458)" fill="#F98600"/>
</mask>
<g mask="url(#mask1_2191_80239)">
<circle cx="267.394" cy="18.7561" r="10.3616" fill="#D350BB" fill-opacity="0.5"/>
<circle cx="252.019" cy="48.1699" r="5.01367" fill="#D350BB" fill-opacity="0.5"/>
<circle cx="298.145" cy="46.8335" r="4.34518" fill="#D350BB" fill-opacity="0.5"/>
</g>
<path d="M265.583 34.6908C265.018 34.784 264.498 34.7514 264.025 34.5929C263.555 34.4339 263.159 34.1663 262.839 33.7902C262.522 33.4135 262.311 32.9449 262.207 32.3844L261.385 27.945L262.587 27.7369L263.406 32.1566C263.455 32.4221 263.543 32.6524 263.671 32.8476C263.802 33.0422 263.958 33.2005 264.14 33.3225C264.322 33.4413 264.52 33.5218 264.734 33.5641C264.949 33.6065 265.163 33.61 265.377 33.5748C265.597 33.5385 265.799 33.4664 265.982 33.3585C266.168 33.2468 266.325 33.1061 266.453 32.9365C266.58 32.7635 266.669 32.5649 266.719 32.3405C266.769 32.1161 266.77 31.8728 266.721 31.6106L265.902 27.1908L267.106 26.9925L267.93 31.4418C268.034 32.0023 268.003 32.5107 267.837 32.967C267.674 33.4228 267.398 33.8009 267.01 34.1013C266.625 34.4011 266.149 34.5976 265.583 34.6908ZM272.384 33.5707C271.864 33.6563 271.406 33.6052 271.008 33.4173C270.611 33.2295 270.284 32.9388 270.028 32.5452C269.772 32.1484 269.595 31.6861 269.497 31.1584C269.398 30.6242 269.398 30.131 269.497 29.679C269.596 29.2269 269.795 28.8515 270.092 28.5526C270.392 28.2499 270.795 28.0568 271.301 27.9734C271.804 27.8905 272.263 27.9416 272.677 28.1268C273.094 28.3081 273.443 28.5934 273.725 28.9826C274.007 29.3685 274.198 29.8302 274.297 30.3678C274.395 30.8987 274.384 31.3921 274.261 31.848C274.139 32.3038 273.918 32.6847 273.598 32.9907C273.279 33.2966 272.874 33.49 272.384 33.5707ZM270.224 36.2064L268.803 28.5369L269.853 28.3638L270.544 32.0904L270.692 32.066L271.422 36.0089L270.224 36.2064ZM272.005 32.5388C272.314 32.4879 272.555 32.3689 272.727 32.1818C272.899 31.9947 273.008 31.7622 273.055 31.4843C273.104 31.2026 273.099 30.8995 273.039 30.575C272.98 30.2538 272.876 29.9702 272.729 29.7242C272.581 29.475 272.389 29.2904 272.153 29.1705C271.917 29.0473 271.639 29.012 271.32 29.0646C271.018 29.1144 270.785 29.2288 270.621 29.4077C270.457 29.5833 270.354 29.8098 270.31 30.0872C270.269 30.3608 270.281 30.6712 270.345 31.0187C270.409 31.3628 270.51 31.6587 270.647 31.9062C270.788 32.1533 270.969 32.3346 271.19 32.4501C271.414 32.5618 271.686 32.5914 272.005 32.5388ZM280.975 32.0037C280.635 32.1272 280.295 32.212 279.954 32.2579C279.617 32.3066 279.305 32.2956 279.018 32.2247C278.729 32.1506 278.493 31.9988 278.308 31.7692C278.144 31.5598 278.036 31.336 277.985 31.0978C277.934 30.8596 277.881 30.5898 277.825 30.2882L276.97 25.6718L278.154 25.4768L278.996 30.0244C279.036 30.2374 279.072 30.424 279.105 30.584C279.141 30.7436 279.2 30.869 279.282 30.9603C279.436 31.1374 279.646 31.2161 279.91 31.1962C280.174 31.1764 280.468 31.1145 280.791 31.0106L280.975 32.0037ZM276.448 28.2352L276.276 27.306L279.991 26.6941L280.163 27.6233L276.448 28.2352ZM284.231 31.6193C283.698 31.7071 283.211 31.6641 282.769 31.4904C282.326 31.3167 281.956 31.0382 281.658 30.655C281.363 30.2679 281.164 29.8007 281.063 29.2534C280.959 28.6962 280.981 28.1894 281.127 27.7331C281.273 27.2767 281.523 26.8977 281.877 26.5962C282.231 26.2947 282.67 26.1008 283.193 26.0147C283.729 25.9264 284.218 25.9691 284.66 26.1428C285.103 26.3165 285.473 26.5966 285.772 26.9831C286.07 27.3664 286.27 27.8317 286.371 28.379C286.473 28.9296 286.452 29.4348 286.306 29.8944C286.164 30.3502 285.915 30.7306 285.562 31.0354C285.208 31.3369 284.764 31.5316 284.231 31.6193ZM284.025 30.5082C284.499 30.4302 284.822 30.2149 284.994 29.8624C285.166 29.5098 285.205 29.0844 285.113 28.5862C285.018 28.0717 284.825 27.6812 284.535 27.4148C284.245 27.1452 283.866 27.0489 283.399 27.1258C283.08 27.1783 282.83 27.2938 282.649 27.4721C282.472 27.6467 282.357 27.8699 282.306 28.1418C282.254 28.4104 282.259 28.7119 282.321 29.0462C282.416 29.5607 282.609 29.9528 282.9 30.2225C283.193 30.4883 283.568 30.5835 284.025 30.5082Z" fill="white"/>
<path d="M265.176 54.4702L263.46 45.2117L261.569 46.8607L261.182 44.7683L263.077 43.1429L265.019 42.8231L267.117 54.1503L265.176 54.4702ZM273.539 53.3358C272.96 53.4312 272.399 53.402 271.855 53.2484C271.31 53.0895 270.818 52.8302 270.377 52.4705C269.941 52.1099 269.593 51.6647 269.332 51.1348L271.073 50.3455C271.203 50.6375 271.386 50.8776 271.621 51.0658C271.862 51.2531 272.125 51.3854 272.411 51.4626C272.702 51.539 272.989 51.5538 273.273 51.507C273.642 51.4464 273.962 51.3017 274.234 51.0732C274.506 50.8446 274.704 50.5661 274.828 50.2377C274.95 49.9041 274.977 49.5538 274.909 49.1867C274.841 48.8196 274.688 48.5018 274.448 48.2332C274.213 47.9585 273.927 47.7598 273.589 47.637C273.251 47.509 272.9 47.4748 272.537 47.5347C272.1 47.6066 271.752 47.7451 271.492 47.9501C271.237 48.1542 271.049 48.358 270.93 48.5614L269.207 48.3101L268.444 42.2589L274.617 41.2421L274.946 43.0199L269.792 43.8689L270.378 43.0833L270.898 47.2939L270.472 46.9264C270.717 46.6104 271.022 46.3548 271.388 46.1595C271.753 45.9643 272.117 45.8367 272.48 45.7769C273.19 45.6599 273.849 45.7189 274.457 45.9539C275.069 46.1828 275.581 46.5496 275.995 47.0543C276.414 47.5582 276.689 48.1641 276.82 48.872C276.951 49.58 276.886 50.2527 276.624 50.8902C276.362 51.5225 275.96 52.0589 275.418 52.4995C274.881 52.9392 274.255 53.2179 273.539 53.3358ZM284.114 51.3508L282.618 50.3002L290.864 38.566L292.362 39.6245L284.114 51.3508ZM291.902 50.3113C291.381 50.3971 290.881 50.3497 290.403 50.169C289.929 49.9823 289.524 49.6978 289.187 49.3155C288.85 48.9279 288.632 48.4719 288.535 47.9475C288.44 47.4336 288.484 46.94 288.667 46.4666C288.851 45.9933 289.135 45.5926 289.519 45.2645C289.902 44.9365 290.347 44.7309 290.852 44.6477C291.373 44.5618 291.873 44.6119 292.352 44.7978C292.831 44.9784 293.236 45.2629 293.568 45.6513C293.905 46.0336 294.121 46.487 294.219 47.0114C294.316 47.5358 294.275 48.0343 294.097 48.5067C293.923 48.9731 293.644 49.3703 293.26 49.6984C292.875 50.0212 292.423 50.2255 291.902 50.3113ZM291.601 48.6908C291.817 48.6553 292.007 48.5673 292.171 48.4268C292.34 48.2855 292.462 48.114 292.539 47.9122C292.615 47.7105 292.633 47.4995 292.592 47.2792C292.552 47.059 292.459 46.8662 292.314 46.7008C292.17 46.5355 291.993 46.4134 291.783 46.3345C291.578 46.2547 291.368 46.2325 291.152 46.2681C290.931 46.3045 290.739 46.3929 290.575 46.5334C290.411 46.6738 290.289 46.8454 290.207 47.048C290.13 47.2497 290.113 47.4607 290.153 47.681C290.194 47.9012 290.287 48.094 290.431 48.2594C290.581 48.4239 290.758 48.546 290.963 48.6258C291.167 48.7056 291.38 48.7273 291.601 48.6908ZM284.126 45.2691C283.605 45.355 283.106 45.3075 282.627 45.1269C282.148 44.941 281.741 44.6569 281.404 44.2746C281.072 43.8862 280.857 43.4298 280.76 42.9054C280.665 42.3915 280.709 41.8978 280.892 41.4245C281.076 40.9511 281.359 40.5504 281.743 40.2224C282.127 39.8944 282.572 39.6887 283.077 39.6055C283.598 39.5197 284.095 39.5702 284.569 39.7569C285.047 39.9376 285.455 40.2217 285.793 40.6092C286.129 40.9915 286.346 41.4449 286.443 41.9693C286.54 42.4937 286.5 42.9921 286.322 43.4646C286.143 43.9319 285.861 44.3295 285.477 44.6575C285.097 44.9795 284.647 45.1833 284.126 45.2691ZM283.826 43.6487C284.047 43.6123 284.239 43.5239 284.403 43.3834C284.567 43.243 284.687 43.0718 284.764 42.8701C284.84 42.6684 284.858 42.4574 284.817 42.2371C284.776 42.0169 284.684 41.8241 284.539 41.6587C284.395 41.4934 284.22 41.3708 284.015 41.291C283.811 41.2112 283.598 41.1895 283.377 41.226C283.156 41.2624 282.964 41.3508 282.8 41.4913C282.636 41.6317 282.516 41.8028 282.439 42.0046C282.363 42.2063 282.345 42.4173 282.386 42.6376C282.427 42.8578 282.519 43.0506 282.664 43.216C282.808 43.3813 282.983 43.5039 283.188 43.5836C283.392 43.6634 283.605 43.6851 283.826 43.6487Z" fill="white"/>
<circle cx="286.861" cy="9.63093" r="1.63093" fill="#B64EB3"/>
<circle cx="293.113" cy="8.81547" r="0.815467" fill="#B64EB3"/>
<circle cx="292.841" cy="13.9811" r="0.543645" fill="#B64EB3"/>
<circle cx="252.246" cy="63.5533" r="1.63093" transform="rotate(-31.0197 252.246 63.5533)" fill="#B64EB3"/>
<circle cx="247.591" cy="59.6888" r="0.815467" transform="rotate(-31.0197 247.591 59.6888)" fill="#B64EB3"/>
<circle cx="252.759" cy="58.1598" r="0.543645" transform="rotate(119.409 252.759 58.1598)" fill="#B64EB3"/>
</svg>
