<svg width="18" height="11" viewBox="0 0 18 11" fill="none" xmlns="http://www.w3.org/2000/svg">
<path id="Cellular Connection" fill-rule="evenodd" clip-rule="evenodd" d="M16.1799 0.324219H15.1746C14.6194 0.324219 14.1693 0.758654 14.1693 1.29456V9.70415C14.1693 10.2401 14.6194 10.6745 15.1746 10.6745H16.1799C16.7351 10.6745 17.1852 10.2401 17.1852 9.70415V1.29456C17.1852 0.758654 16.7351 0.324219 16.1799 0.324219ZM10.4833 2.58834H11.4886C12.0438 2.58834 12.4938 3.02277 12.4938 3.55868V9.70414C12.4938 10.24 12.0438 10.6745 11.4886 10.6745H10.4833C9.9281 10.6745 9.47803 10.24 9.47803 9.70414V3.55868C9.47803 3.02277 9.9281 2.58834 10.4833 2.58834ZM6.79727 4.85246H5.79196C5.23674 4.85246 4.78665 5.2869 4.78665 5.8228V9.70415C4.78665 10.2401 5.23674 10.6745 5.79196 10.6745H6.79727C7.35249 10.6745 7.80258 10.2401 7.80258 9.70415V5.8228C7.80258 5.2869 7.35249 4.85246 6.79727 4.85246ZM2.10595 6.79314H1.10066C0.545451 6.79314 0.0953674 7.22757 0.0953674 7.76347V9.70415C0.0953674 10.2401 0.545451 10.6745 1.10066 10.6745H2.10595C2.66115 10.6745 3.11124 10.2401 3.11124 9.70415V7.76347C3.11124 7.22757 2.66115 6.79314 2.10595 6.79314Z" fill="white"/>
</svg>
