<svg width="74" height="81" viewBox="0 0 74 81" fill="none" xmlns="http://www.w3.org/2000/svg">
<g id="icon">
<path id="Vector" d="M10.6549 74.8264C10.6549 74.8264 6.20501 74.5454 6.72739 77.8165C6.72739 77.8165 6.62388 78.3946 7.12305 78.6573C7.12305 78.6573 7.13079 78.4149 7.57965 78.4971C7.73945 78.5246 7.90175 78.5327 8.06333 78.5214C8.28199 78.5054 8.48977 78.4154 8.65536 78.2648C8.65536 78.2648 9.90617 77.7232 10.3966 75.579C10.3966 75.579 10.7575 75.1104 10.7429 74.9907L9.9913 75.3264C9.9913 75.3264 10.2477 75.8954 10.0464 76.3671C10.0464 76.3671 10.0223 75.3528 9.87715 75.372C9.84813 75.372 9.4902 75.5688 9.4902 75.5688C9.4902 75.5688 9.93229 76.5588 9.59855 77.2779C9.59855 77.2779 9.72527 76.0607 9.35187 75.6398L8.81691 75.9634C8.81691 75.9634 9.33252 76.9868 8.98233 77.8205C8.98233 77.8205 9.0723 76.5405 8.70567 76.0425L8.22198 76.435C8.22198 76.435 8.70567 77.4422 8.41545 78.1339C8.41545 78.1339 8.37676 76.645 8.12524 76.5324C8.12524 76.5324 7.70637 76.9198 7.64156 77.0791C7.64156 77.0791 7.97433 77.8104 7.76828 78.1948C7.76828 78.1948 7.64156 77.2018 7.53805 77.1978C7.53805 77.1978 7.12015 77.855 7.07661 78.3054C7.07661 78.3054 7.095 77.6349 7.43648 77.1349C7.43648 77.1349 7.03308 77.2069 6.79704 77.4818C6.79704 77.4818 6.86186 77.0172 7.53998 76.9746C7.53998 76.9746 7.88534 76.4756 7.97724 76.4452C7.97724 76.4452 7.30008 76.3863 6.89475 76.576C6.89475 76.576 7.25461 76.1378 8.10106 76.3366L8.5741 75.9309C8.5741 75.9309 7.68702 75.8031 7.31072 75.9441C7.31072 75.9441 7.74313 75.5566 8.7018 75.8427L9.21644 75.5201C9.21644 75.5201 8.45995 75.3487 8.00916 75.4106C8.00916 75.4106 8.4851 75.1418 9.36348 75.4329L9.73591 75.2605C9.73591 75.2605 9.18161 75.1469 9.01909 75.1286C8.85657 75.1104 8.84883 75.0637 8.84883 75.0637C9.19985 75.0024 9.56022 75.0445 9.88973 75.1854C9.88973 75.1854 10.6714 74.8781 10.6549 74.8264Z" fill="#037615"/>
<path id="Vector_2" opacity="0.1" d="M7.52032 79.3772C9.30035 79.3772 10.7433 79.1625 10.7433 78.8976C10.7433 78.6327 9.30035 78.418 7.52032 78.418C5.7403 78.418 4.2973 78.6327 4.2973 78.8976C4.2973 79.1625 5.7403 79.3772 7.52032 79.3772Z" fill="#4285F4"/>
<path id="Vector_3" d="M19.0563 66.6714C19.0563 66.6714 16.695 66.5125 16.9735 68.3526C16.959 68.446 16.9714 68.5421 17.009 68.6272C17.0466 68.7123 17.1074 68.782 17.1828 68.8263C17.1828 68.8263 17.1828 68.6896 17.4248 68.7362C17.5096 68.7513 17.5957 68.7557 17.6814 68.7494C17.7973 68.7407 17.9075 68.6902 17.9953 68.6056C17.9953 68.6056 18.6586 68.302 18.917 67.0935C18.917 67.0935 19.1081 66.8303 19.099 66.7635L18.7005 66.9528C18.7005 66.9528 18.8361 67.2716 18.7296 67.5378C18.7296 67.5378 18.7159 66.9639 18.6386 66.9771C18.6231 66.9771 18.4321 67.0884 18.4321 67.0884C18.4321 67.0884 18.6659 67.6451 18.4894 68.05C18.4894 68.05 18.5567 67.3637 18.3584 67.1289L18.0781 67.3111C18.0781 67.3111 18.3511 67.886 18.1691 68.3556C18.1691 68.3556 18.2164 67.635 18.0217 67.3546L17.7678 67.5753C17.7678 67.5753 18.0253 68.1421 17.8679 68.5317C17.8679 68.5317 17.8479 67.6937 17.7123 67.6299C17.6163 67.7192 17.5305 67.8212 17.4566 67.9336C17.4566 67.9336 17.6322 68.3445 17.5231 68.5621C17.5231 68.5621 17.4566 68.0034 17.4011 68.0014C17.4011 68.0014 17.18 68.3708 17.1573 68.6239C17.1679 68.3895 17.2335 68.1624 17.3474 67.9649C17.2198 67.9923 17.1022 68.0606 17.009 68.1613C17.009 68.1613 17.0426 67.8992 17.402 67.8759C17.402 67.8759 17.584 67.5955 17.6341 67.5783C17.6341 67.5783 17.2774 67.5459 17.0599 67.6522C17.0599 67.6522 17.251 67.4052 17.6969 67.5176L17.948 67.2898C17.948 67.2898 17.4776 67.218 17.2783 67.2969C17.2783 67.2969 17.5076 67.0793 18.0153 67.2382L18.2883 67.056C18.0793 67.005 17.8651 66.9846 17.6514 66.9953C17.6514 66.9953 17.9034 66.8435 18.372 67.0075L18.5667 66.9062C18.5667 66.9062 18.2728 66.8415 18.1873 66.8313C18.1018 66.8212 18.0963 66.7949 18.0963 66.7949C18.2826 66.7605 18.4738 66.7843 18.6486 66.8637C18.6486 66.8637 19.0626 66.6967 19.0563 66.6714Z" fill="#037615"/>
<path id="Vector_4" opacity="0.1" d="M17.4281 69.0656C18.3511 69.0656 19.0993 68.9582 19.0993 68.8258C19.0993 68.6933 18.3511 68.5859 17.4281 68.5859C16.5051 68.5859 15.7569 68.6933 15.7569 68.8258C15.7569 68.9582 16.5051 69.0656 17.4281 69.0656Z" fill="#4285F4"/>
<path id="Vector_5" d="M4.24274 68.1096C4.24274 68.1096 1.35935 67.917 1.69895 70.1656C1.68148 70.2797 1.69682 70.3969 1.74276 70.5007C1.78871 70.6044 1.86291 70.6894 1.9548 70.7434C1.9548 70.7434 1.96032 70.5764 2.25115 70.6328C2.35447 70.6523 2.4595 70.6581 2.56406 70.6502C2.70563 70.64 2.84021 70.578 2.94692 70.474C2.94692 70.474 3.75773 70.1011 4.07248 68.63C4.07248 68.63 4.30625 68.3083 4.29704 68.2202L3.81019 68.4517C3.81019 68.4517 3.97677 68.8421 3.84608 69.1689C3.84608 69.1689 3.82952 68.4681 3.73656 68.4845C3.71723 68.4845 3.48347 68.6198 3.48347 68.6198C3.48347 68.6198 3.76969 69.301 3.55341 69.7948C3.55341 69.7948 3.63533 68.9568 3.3942 68.6679L3.05184 68.8902C3.05184 68.8902 3.38591 69.594 3.15951 70.1677C3.15951 70.1677 3.21749 69.2877 2.98005 68.9445L2.6699 69.2139C2.6699 69.2139 2.98373 69.9075 2.7923 70.3828C2.7923 70.3828 2.76653 69.3584 2.60179 69.2815C2.60179 69.2815 2.33029 69.5479 2.28888 69.6575C2.28888 69.6575 2.50424 70.1605 2.37079 70.4258C2.37079 70.4258 2.28888 69.7436 2.22169 69.7405C2.22169 69.7405 1.95112 70.1923 1.92351 70.5027C1.93618 70.2155 2.01648 69.9371 2.15635 69.6954C2.00025 69.728 1.85621 69.811 1.7422 69.9341C1.7422 69.9341 1.78454 69.6145 2.22354 69.5858C2.22354 69.5858 2.44626 69.2436 2.507 69.2221C2.507 69.2221 2.06984 69.1822 1.80571 69.3123C1.80571 69.3123 2.03855 69.0111 2.58615 69.1473L2.89262 68.8759C2.89262 68.8759 2.31833 68.7878 2.07444 68.8851C2.07444 68.8851 2.35514 68.6177 2.97545 68.8123L3.30953 68.59C3.30953 68.59 2.81899 68.4733 2.52725 68.5153C2.52725 68.5153 2.83556 68.3309 3.40708 68.5306L3.64545 68.4118C3.64545 68.4118 3.28652 68.3329 3.18528 68.3206C3.08405 68.3083 3.07392 68.2755 3.07392 68.2755C3.30144 68.2336 3.53496 68.2627 3.74852 68.3596C3.74852 68.3596 4.25103 68.1454 4.24274 68.1096Z" fill="#037615"/>
<path id="Vector_6" opacity="0.1" d="M2.14868 71.2233C3.33536 71.2233 4.29736 71.0623 4.29736 70.8636C4.29736 70.665 3.33536 70.5039 2.14868 70.5039C0.961997 70.5039 0 70.665 0 70.8636C0 71.0623 0.961997 71.2233 2.14868 71.2233Z" fill="#4285F4"/>
<path id="Vector_7" d="M29.8781 18.7031C29.0803 19.0168 28.1794 19.4438 27.9722 20.285C27.9061 20.6097 27.9234 20.9461 28.0223 21.2621C28.1395 21.6705 28.3352 22.0513 28.5981 22.3827C28.861 22.714 29.186 22.9894 29.5543 23.1928C30.4706 23.6921 31.6086 23.7195 32.4449 24.3409C32.9564 24.724 33.3039 25.291 33.4162 25.9257C33.4615 26.1915 33.4653 26.468 33.5617 26.7201C33.8189 27.3952 34.6283 27.6581 35.3413 27.6971C35.6843 27.7177 36.0601 27.7186 36.3222 27.9444C36.427 28.0447 36.516 28.1607 36.5862 28.2883C37.1412 29.1862 37.7155 30.1447 37.7212 31.2068C37.7212 32.0393 37.3744 32.8307 36.9687 33.5518C36.4397 34.4927 35.7894 35.4171 35.6679 36.4928C35.5253 37.763 36.1497 38.9883 36.2307 40.2614C36.2693 40.9396 36.1559 41.6179 35.8989 42.2452C35.6419 42.8726 35.248 43.4327 34.7468 43.8835" stroke="#0A345A" stroke-miterlimit="10"/>
<path id="Vector_8" d="M26.6979 7.69469C27.3174 12.2004 27.2122 17.8667 23.161 18.4221C19.1098 18.9776 12.6477 14.2111 12.0243 9.70632C11.4009 5.20155 14.1868 1.09851 18.238 0.543073C22.2892 -0.012364 26.0784 3.18991 26.6979 7.69469Z" fill="#DA0097"/>
<path id="Vector_9" d="M25.4546 20.0723C25.4546 20.0723 24.7688 20.3747 24.6649 19.7246C24.6564 19.6667 24.6524 19.6083 24.6528 19.5498C24.65 19.3484 24.6114 19.1491 24.5388 18.9605C24.5133 18.8937 24.4844 18.8281 24.4521 18.7641C24.3068 18.4741 24.1113 18.2107 23.8742 17.9853L25.4879 16.7852C25.4879 16.7852 25.2035 17.7535 25.4748 17.9863C25.5146 18.0195 25.5656 18.037 25.618 18.0354C25.667 18.0351 25.7155 18.0261 25.7612 18.0089C25.8167 17.9902 25.8671 17.9755 25.9135 17.9637C26.4591 17.8282 26.4178 18.167 26.4178 18.167C26.8484 18.9016 25.4546 20.0723 25.4546 20.0723Z" fill="#4285F4"/>
<path id="Vector_10" d="M25.5454 18.0298L24.4406 18.9436C24.4145 18.8778 24.3848 18.8133 24.3517 18.7502C24.6506 18.5452 25.1089 18.2029 25.3985 17.9844C25.4398 18.016 25.4921 18.0322 25.5454 18.0298Z" fill="#444053"/>
<path id="Vector_11" d="M25.4127 20.0743C25.4127 20.0743 24.6986 20.3688 24.5904 19.7358C24.8787 19.6394 25.1434 19.4926 25.3697 19.3036C25.669 19.0272 25.9588 18.4028 25.8885 18.0155C26.4567 17.8836 26.4136 18.2135 26.4136 18.2135C26.8641 18.9345 25.4127 20.0743 25.4127 20.0743Z" fill="#4285F4"/>
<path id="Vector_12" opacity="0.1" d="M25.4127 20.0743C25.4127 20.0743 24.6986 20.3688 24.5904 19.7358C24.8787 19.6394 25.1434 19.4926 25.3697 19.3036C25.669 19.0272 25.9588 18.4028 25.8885 18.0155C26.4567 17.8836 26.4136 18.2135 26.4136 18.2135C26.8641 18.9345 25.4127 20.0743 25.4127 20.0743Z" fill="black"/>
<path id="Vector_13" d="M28.134 30.1368C28.0553 30.669 27.9015 31.1872 27.6773 31.6756C27.618 31.8126 27.5529 31.9515 27.4829 32.0885C25.6531 35.6239 20.568 39.0772 16.7704 38.5587C13.2245 38.0744 10.4861 35.617 9.74858 32.6079C9.71262 32.4612 9.68055 32.3144 9.6514 32.1618C9.53121 31.4735 9.51744 30.7707 9.61059 30.0781C10.0556 26.7873 12.8174 24.326 16.2437 23.8339C16.5461 23.789 16.8507 23.7609 17.1562 23.7498C17.3039 23.7429 17.4536 23.7409 17.6042 23.7429C17.989 23.7453 18.3734 23.7728 18.7547 23.8251C18.9656 23.8544 19.1813 23.8848 19.397 23.9229C19.4155 23.9229 19.433 23.9298 19.4515 23.9317C20.764 24.1276 22.0585 24.4313 23.3219 24.8395C23.7106 24.9696 24.0867 25.1086 24.4482 25.267C24.6999 25.3737 24.9447 25.4881 25.1809 25.6094C26.2411 26.1514 27.1088 26.8293 27.6326 27.6755C27.6851 27.7596 27.7298 27.8448 27.7784 27.9338L27.7988 27.9749C27.9777 28.3299 28.0938 28.7135 28.1418 29.1087C28.184 29.4503 28.1813 29.7959 28.134 30.1368Z" fill="#26B0DA"/>
<path id="Vector_14" d="M28.134 30.1368C28.0553 30.669 27.9015 31.1872 27.6773 31.6756C27.618 31.8126 27.5529 31.9515 27.4829 32.0885C25.6531 35.6239 20.568 39.0772 16.7704 38.5587C13.2245 38.0744 10.4861 35.617 9.74858 32.6079C9.71262 32.4612 9.68055 32.3144 9.6514 32.1618C9.53121 31.4735 9.51744 30.7707 9.61059 30.0781C10.0556 26.7873 12.8174 24.326 16.2437 23.8339C16.5461 23.789 16.8507 23.7609 17.1562 23.7498C17.3039 23.7429 17.4536 23.7409 17.6042 23.7429C17.989 23.7453 18.3734 23.7728 18.7547 23.8251C18.9656 23.8544 19.1813 23.8848 19.397 23.9229C19.4155 23.9229 19.433 23.9298 19.4515 23.9317C20.764 24.1276 22.0585 24.4313 23.3219 24.8395C23.7106 24.9696 24.0867 25.1086 24.4482 25.267C24.6999 25.3737 24.9447 25.4881 25.1809 25.6094C26.2411 26.1514 27.1088 26.8293 27.6326 27.6755C27.6851 27.7596 27.7298 27.8448 27.7784 27.9338L27.7988 27.9749C27.9777 28.3299 28.0938 28.7135 28.1418 29.1087C28.184 29.4503 28.1813 29.7959 28.134 30.1368Z" fill="#E900A1"/>
<path id="Vector_15" d="M29.7826 28.9775C29.7255 28.9716 29.6692 28.9599 29.6144 28.9424C29.4234 28.8897 29.2249 28.8724 29.0281 28.8914C28.9565 28.8958 28.8852 28.9051 28.8148 28.9194C28.6061 28.9579 28.4027 29.0231 28.2093 29.1135C28.1152 29.1555 28.0237 29.2036 27.9354 29.2575L27.4386 27.9703L27.4318 27.9513L27.2166 27.3932C27.3732 27.4909 27.5367 27.5761 27.7057 27.6482C27.9422 27.7482 28.2045 27.8253 28.3439 27.7322C28.3847 27.7024 28.414 27.6584 28.4265 27.6082C28.4393 27.5611 28.4432 27.5119 28.4381 27.4632C28.4381 27.4052 28.4333 27.3532 28.4333 27.3042C28.4467 26.7481 28.7571 26.8771 28.7571 26.8771C29.1137 26.7861 29.4597 27.0591 29.7336 27.3882C29.7739 27.4382 29.8124 27.4882 29.8479 27.5362C30.026 27.7813 30.1817 28.0431 30.3131 28.3183C30.3131 28.3183 30.4226 29.0585 29.7826 28.9775Z" fill="#63479E"/>
<path id="Vector_16" d="M28.8878 28.7516C28.8378 28.7556 28.788 28.7641 28.7389 28.7772C28.6718 28.5187 28.5511 28.1379 28.4572 27.8448C28.4512 27.8229 28.4445 27.8037 28.4384 27.7827C28.4324 27.7617 28.4183 27.7206 28.4103 27.6914C28.4387 27.6641 28.4592 27.624 28.468 27.5781L28.531 27.7553L28.5558 27.8256L28.8878 28.7516Z" fill="#444053"/>
<path id="Vector_17" d="M29.7735 29.0114C29.75 28.7152 29.6713 28.4266 29.5419 28.1619C29.4512 28.01 29.3393 27.873 29.2101 27.7554C29.1724 27.7192 29.1327 27.6853 29.0914 27.6538C28.896 27.4808 28.6615 27.363 28.4103 27.3113C28.4239 26.7463 28.7382 26.8774 28.7382 26.8774C29.0992 26.7849 29.4494 27.0623 29.7268 27.3967C29.7676 27.4475 29.8065 27.4983 29.8425 27.5471C30.0228 27.7961 30.1805 28.0621 30.3135 28.3417C30.3135 28.3417 30.4215 29.0937 29.7735 29.0114Z" fill="#63479E"/>
<path id="Vector_18" opacity="0.1" d="M29.7735 29.0114C29.75 28.7152 29.6713 28.4266 29.5419 28.1619C29.4512 28.01 29.3393 27.873 29.2101 27.7554C29.1724 27.7192 29.1327 27.6853 29.0914 27.6538C28.896 27.4808 28.6615 27.363 28.4103 27.3113C28.4239 26.7463 28.7382 26.8774 28.7382 26.8774C29.0992 26.7849 29.4494 27.0623 29.7268 27.3967C29.7676 27.4475 29.8065 27.4983 29.8425 27.5471C30.0228 27.7961 30.1805 28.0621 30.3135 28.3417C30.3135 28.3417 30.4215 29.0937 29.7735 29.0114Z" fill="black"/>
<path id="Vector_19" opacity="0.1" d="M11.2208 33.5742C11.2208 33.5742 11.6817 35.606 13.3695 35.7325C13.3695 35.7325 13.1365 35.3465 13.1605 35.0183C13.1813 34.8534 13.1569 34.6865 13.0894 34.5314C13.0894 34.5314 12.1509 34.4663 11.2208 33.5742Z" fill="white"/>
<path id="Vector_20" d="M33.8544 11.0709C33.0665 12.8771 32.0499 14.7971 30.8453 16.2609C29.9217 17.3882 28.8847 18.2421 27.7566 18.567C27.2696 18.709 26.7575 18.7422 26.2564 18.6643C25.9178 18.6121 25.5879 18.5139 25.2756 18.3725C23.0747 17.4047 21.1258 14.4187 20.272 11.2723C19.6818 9.09067 19.6159 6.83904 20.3602 5.13304C22.1783 0.974077 26.6722 -1.07331 30.4033 0.5646C34.1345 2.20251 35.6716 6.90615 33.8544 11.0709Z" fill="#26B0DA"/>
<path id="Vector_21" d="M33.8544 11.0709C33.0665 12.8771 32.0499 14.7971 30.8453 16.2609C29.9217 17.3882 28.8847 18.2421 27.7566 18.567C27.2696 18.709 26.7575 18.7422 26.2564 18.6643C25.9178 18.6121 25.5879 18.5139 25.2756 18.3725C23.0747 17.4047 21.1258 14.4187 20.272 11.2723C19.6818 9.09067 19.6159 6.83904 20.3602 5.13304C22.1783 0.974077 26.6722 -1.07331 30.4033 0.5646C34.1345 2.20251 35.6716 6.90615 33.8544 11.0709Z" fill="#FF74D4"/>
<path id="Vector_22" d="M28.1295 19.7884C28.0998 20.5892 26.3154 20.8645 26.3154 20.8645C26.3154 20.8645 25.5813 20.7774 25.8389 20.2055C25.8615 20.1548 25.8883 20.1058 25.9191 20.059C26.0242 19.8945 26.0979 19.7142 26.1371 19.5261C26.151 19.4584 26.1629 19.3917 26.1698 19.3249C26.1899 19.1206 26.1853 18.9147 26.1559 18.7113C26.1425 18.6135 26.1224 18.5166 26.0955 18.4212L28.077 18.2266C27.9385 18.3488 27.8091 18.4798 27.6896 18.6186C27.5261 18.8133 27.3845 19.0367 27.433 19.1878C27.4411 19.2111 27.454 19.2326 27.471 19.2512C27.488 19.2699 27.5087 19.2851 27.5321 19.2962C27.5729 19.3203 27.6183 19.3366 27.6658 19.3444C27.7168 19.3537 27.767 19.3657 27.8164 19.3805C28.3405 19.5326 28.1295 19.7884 28.1295 19.7884Z" fill="#4285F4"/>
<path id="Vector_23" d="M27.4553 19.2605L26.2616 19.4234C26.2735 19.3754 26.2838 19.3281 26.2897 19.2808C26.5924 19.2605 27.0725 19.2151 27.3769 19.1836C27.3892 19.216 27.4173 19.2436 27.4553 19.2605Z" fill="#444053"/>
<path id="Vector_24" d="M28.1299 19.8212C28.1001 20.5977 26.3155 20.8647 26.3155 20.8647C26.3155 20.8647 25.5813 20.7802 25.8389 20.2257C26.1232 20.2768 26.4157 20.2768 26.7 20.2257C27.0884 20.1358 27.6602 19.7682 27.8128 19.4258C28.3409 19.5732 28.1299 19.8212 28.1299 19.8212Z" fill="#4285F4"/>
<path id="Vector_25" opacity="0.1" d="M28.1299 19.8212C28.1001 20.5977 26.3155 20.8647 26.3155 20.8647C26.3155 20.8647 25.5813 20.7802 25.8389 20.2257C26.1232 20.2768 26.4157 20.2768 26.7 20.2257C27.0884 20.1358 27.6602 19.7682 27.8128 19.4258C28.3409 19.5732 28.1299 19.8212 28.1299 19.8212Z" fill="black"/>
<g id="Group" opacity="0.1">
<path id="Vector_26" opacity="0.1" d="M4.37597 29.0984C4.35854 29.4456 4.57544 29.8542 4.57544 29.8542C3.01254 29.7209 2.58453 27.5664 2.58453 27.5664C3.44636 28.5119 4.31012 28.5819 4.31012 28.5819C4.37279 28.7463 4.39537 28.9234 4.37597 29.0984Z" fill="black"/>
<path id="Vector_27" opacity="0.1" d="M19.2206 23.317L18.4973 21.5039C18.6551 21.5989 18.8199 21.6818 18.9901 21.7519C19.2615 22.1836 19.4344 22.6702 19.4966 23.1769C19.4019 23.218 19.3097 23.2648 19.2206 23.317Z" fill="black"/>
<path id="Vector_28" opacity="0.1" d="M19.5111 23.9354C19.5043 24.022 19.4956 24.1124 19.484 24.2019C19.4049 24.7309 19.251 25.2458 19.0269 25.731C18.9678 25.8672 18.902 26.0053 18.8333 26.1424C17.2703 29.1578 13.3234 32.1118 9.84123 32.5622C9.63862 31.7398 9.59262 30.8863 9.70566 30.0468C10.1492 26.7747 12.9012 24.3274 16.3156 23.8382C17.1452 23.7184 17.9873 23.7155 18.8178 23.8294C19.0463 23.8654 19.2787 23.8975 19.5111 23.9354Z" fill="black"/>
<path id="Vector_29" opacity="0.1" d="M21.0779 23.0444C21.0201 23.0387 20.9631 23.0273 20.9075 23.0103C20.7154 22.959 20.5157 22.9422 20.3178 22.9607C20.2456 22.9648 20.1738 22.9739 20.1028 22.9879C19.7907 23.0463 19.4908 23.1574 19.2158 23.3167L18.4925 21.5036C18.6503 21.5986 18.8151 21.6815 18.9853 21.7517C19.2226 21.8489 19.4869 21.9238 19.6274 21.8334C19.6685 21.8041 19.6982 21.7615 19.7116 21.7127C19.7236 21.6668 19.7272 21.619 19.7223 21.5717C19.7223 21.5153 19.7223 21.4657 19.7223 21.418C19.7358 20.8772 20.0476 21.0017 20.0476 21.0017C20.8601 20.8013 21.6154 22.4034 21.6154 22.4034C21.6154 22.4034 21.7219 23.1222 21.0779 23.0444Z" fill="black"/>
<path id="Vector_30" opacity="0.1" d="M20.3178 22.9589C20.2456 22.963 20.1738 22.9721 20.1028 22.9861C19.9827 22.6612 19.7658 22.1545 19.6273 21.8316C19.6685 21.8023 19.6982 21.7597 19.7116 21.7109L20.3178 22.9589Z" fill="black"/>
<path id="Vector_31" opacity="0.1" d="M21.0779 23.0444C21.0536 22.7609 20.975 22.4848 20.8465 22.2312C20.6528 21.8898 20.1135 21.4608 19.7184 21.418C19.7319 20.8772 20.0437 21.0017 20.0437 21.0017C20.8562 20.8013 21.6115 22.4034 21.6115 22.4034C21.6115 22.4034 21.7219 23.1222 21.0779 23.0444Z" fill="black"/>
<path id="Vector_32" opacity="0.1" d="M21.0779 23.0444C21.0536 22.7609 20.975 22.4848 20.8465 22.2312C20.6528 21.8898 20.1135 21.4608 19.7184 21.418C19.7319 20.8772 20.0437 21.0017 20.0437 21.0017C20.8562 20.8013 21.6115 22.4034 21.6115 22.4034C21.6115 22.4034 21.7219 23.1222 21.0779 23.0444Z" fill="black"/>
<path id="Vector_33" opacity="0.1" d="M4.57544 29.8542C3.01254 29.7209 2.58453 27.5664 2.58453 27.5664C3.44636 28.5119 4.31012 28.5819 4.31012 28.5819C4.37279 28.7463 4.39537 28.9234 4.37597 29.0984C4.35854 29.4456 4.57544 29.8542 4.57544 29.8542Z" fill="black"/>
</g>
<path id="Vector_34" d="M19.5423 23.798C19.5336 23.8568 19.5239 23.9155 19.5151 23.9761C19.4263 24.4371 19.2811 24.8857 19.0827 25.312C19.0643 25.3524 19.0458 25.3948 19.0254 25.4352C18.9826 25.5314 18.935 25.6277 18.8845 25.7182C17.3007 28.7288 13.2829 31.6768 9.76651 32.0858C9.23751 32.1532 8.70198 32.1532 8.17299 32.0858C3.67229 31.4804 0.468743 27.7441 1.01578 23.7422C1.4608 20.5045 4.22224 18.0829 7.64927 17.5988C7.75518 17.5834 7.86206 17.5699 7.97089 17.5584C8.69891 17.4816 9.43362 17.4923 10.1591 17.5901C11.6641 17.7903 13.2732 18.1051 14.7258 18.5844C15.0322 18.6857 15.3308 18.7942 15.6217 18.9097C15.6994 18.9395 15.7762 18.9732 15.851 19.0059C15.9919 19.0646 16.1308 19.1282 16.2669 19.1907C16.3757 19.2398 16.4797 19.2918 16.5846 19.3438C17.6447 19.877 18.5114 20.5439 19.0361 21.3765C19.3084 21.8033 19.4819 22.2845 19.5443 22.7855C19.5884 23.1217 19.5877 23.4621 19.5423 23.798Z" fill="#FF2CBE"/>
<path id="Vector_35" d="M21.1445 22.5313C21.0828 22.526 21.0218 22.5155 20.9625 22.4998C20.7573 22.4525 20.5441 22.4366 20.3327 22.453C20.2556 22.4575 20.1789 22.4662 20.1031 22.4791C19.8783 22.5139 19.6591 22.5722 19.4505 22.6528C19.3494 22.6913 19.251 22.7349 19.1557 22.7833L18.3831 21.1055C18.552 21.193 18.7279 21.2697 18.9096 21.335C19.163 21.425 19.4453 21.4944 19.5953 21.4106C19.6392 21.3836 19.671 21.3442 19.6852 21.299C19.698 21.2565 19.7019 21.2123 19.6966 21.1685C19.6966 21.1163 19.6966 21.0695 19.6966 21.0254C19.7111 20.5249 20.0441 20.641 20.0441 20.641C20.9118 20.4556 21.7185 21.9381 21.7185 21.9381C21.7185 21.9381 21.8323 22.6024 21.1445 22.5313Z" fill="#4285F4"/>
<path id="Vector_36" d="M20.293 22.5163C20.2181 22.5209 20.1437 22.5298 20.07 22.5428C19.9454 22.2364 19.7204 21.7608 19.5768 21.4572C19.6194 21.4297 19.6503 21.3896 19.6642 21.3438L20.293 22.5163Z" fill="#444053"/>
<path id="Vector_37" d="M21.182 22.5382C21.1577 22.2749 21.0787 22.0184 20.9494 21.7829C20.7548 21.4659 20.2127 21.0675 19.8156 21.0268C19.8292 20.5246 20.1426 20.6411 20.1426 20.6411C20.9592 20.455 21.7183 21.9428 21.7183 21.9428C21.7183 21.9428 21.8292 22.6095 21.182 22.5382Z" fill="#4285F4"/>
<path id="Vector_38" opacity="0.1" d="M21.182 22.5382C21.1577 22.2749 21.0787 22.0184 20.9494 21.7829C20.7548 21.4659 20.2127 21.0675 19.8156 21.0268C19.8292 20.5246 20.1426 20.6411 20.1426 20.6411C20.9592 20.455 21.7183 21.9428 21.7183 21.9428C21.7183 21.9428 21.8292 22.6095 21.182 22.5382Z" fill="black"/>
<path id="Vector_39" opacity="0.1" d="M2.62613 27.0977C2.62613 27.0977 3.03653 29.3542 4.53607 29.4958C4.53607 29.4958 4.32808 29.0669 4.34572 28.7022C4.36418 28.5189 4.34254 28.3335 4.28258 28.1612C4.28258 28.1612 3.45343 28.0899 2.62613 27.0977Z" fill="white"/>
<g id="Group_2" opacity="0.1">
<path id="Vector_40" opacity="0.1" d="M5.43544 8.74298C5.33543 8.88782 5.20269 9.00681 5.04811 9.09023C4.75179 9.27212 4.53682 9.68162 4.53682 9.68162C3.76215 8.30917 5.29697 6.73828 5.29697 6.73828C5.0055 7.98818 5.43544 8.74298 5.43544 8.74298Z" fill="black"/>
<path id="Vector_41" opacity="0.1" d="M15.8112 18.9028C16.0629 19.0098 16.3066 19.1236 16.5423 19.2442C16.2449 19.3208 15.9428 19.3771 15.6378 19.4125C13.1947 19.7043 10.066 18.9369 7.64127 17.4827C8.47054 17.3629 9.3124 17.36 10.1425 17.474C11.6425 17.6763 13.246 17.9943 14.6937 18.4787C15.0762 18.6081 15.4519 18.7462 15.8112 18.9028Z" fill="black"/>
<path id="Vector_42" opacity="0.1" d="M19.3291 17.0603C19.1274 17.5285 18.826 17.9465 18.446 18.2849C18.3592 18.2288 18.2686 18.1787 18.1749 18.1351L19.2565 16.5078C19.2673 16.6935 19.2915 16.8782 19.3291 17.0603Z" fill="black"/>
<path id="Vector_43" opacity="0.1" d="M20.2742 19.6048C20.2742 19.6048 19.7474 20.1029 19.4463 19.526C19.4198 19.474 19.3972 19.42 19.3785 19.3646C19.3119 19.1763 19.2137 19.001 19.088 18.8461C19.0425 18.7897 18.9912 18.7353 18.9457 18.6847C18.7958 18.5313 18.6276 18.397 18.445 18.2849C18.3582 18.2288 18.2676 18.1787 18.1739 18.1351L19.2555 16.5078C19.2669 16.6936 19.2918 16.8782 19.3301 17.0603C19.3824 17.3151 19.4724 17.5739 19.6264 17.6439C19.6731 17.6605 19.724 17.6605 19.7707 17.6439C19.8157 17.629 19.8575 17.6056 19.8937 17.5748C19.9382 17.5408 19.9789 17.5097 20.0176 17.4844C20.4698 17.1926 20.5425 17.5184 20.5425 17.5184C21.1661 18.0758 20.2742 19.6048 20.2742 19.6048Z" fill="black"/>
<path id="Vector_44" opacity="0.1" d="M19.7698 17.6406L19.0871 18.8468C19.0416 18.7903 18.9902 18.7359 18.9447 18.6853C19.1432 18.4013 19.4376 17.9353 19.6226 17.6406C19.6701 17.6579 19.7222 17.6579 19.7698 17.6406Z" fill="black"/>
<path id="Vector_45" opacity="0.1" d="M20.2742 19.6051C20.2742 19.6051 19.7474 20.1031 19.4463 19.5263C19.6659 19.3463 19.8487 19.1254 19.9847 18.8756C20.1551 18.5216 20.2045 17.8329 20.0166 17.4808C20.4689 17.189 20.5415 17.5148 20.5415 17.5148C21.1661 18.0761 20.2742 19.6051 20.2742 19.6051Z" fill="black"/>
<path id="Vector_46" opacity="0.1" d="M20.2742 19.6051C20.2742 19.6051 19.7474 20.1031 19.4463 19.5263C19.6659 19.3463 19.8487 19.1254 19.9847 18.8756C20.1551 18.5216 20.2045 17.8329 20.0166 17.4808C20.4689 17.189 20.5415 17.5148 20.5415 17.5148C21.1661 18.0761 20.2742 19.6051 20.2742 19.6051Z" fill="black"/>
<path id="Vector_47" opacity="0.1" d="M5.43544 8.74298C5.33543 8.88782 5.20269 9.00681 5.04811 9.09023C4.75179 9.27212 4.53682 9.68162 4.53682 9.68162C3.76215 8.30917 5.29697 6.73828 5.29697 6.73828C5.0055 7.98818 5.43544 8.74298 5.43544 8.74298Z" fill="black"/>
</g>
<path id="Vector_48" d="M19.4259 16.7855C19.2229 17.2503 18.9191 17.6652 18.536 18.0008C18.278 18.2273 17.9905 18.4185 17.6812 18.5694C17.2438 18.782 16.7794 18.9353 16.3006 19.025C16.1054 19.0656 15.9103 19.0945 15.7034 19.1216C15.6898 19.1216 15.6781 19.1216 15.6644 19.1264C13.3168 19.3948 10.3486 18.7065 7.96876 17.3888C6.34806 16.494 5.00155 15.3095 4.30585 13.9368C2.26363 9.90181 3.57404 5.16017 7.23306 3.34441C10.8921 1.52864 15.519 3.32703 17.5603 7.36592C18.2433 8.71737 18.8941 10.2117 19.3166 11.6751C19.3556 11.8083 19.3917 11.9386 19.4259 12.0699C19.8884 13.8181 19.9996 15.4958 19.4259 16.7855Z" fill="#26B0DA"/>
<path id="Vector_49" d="M19.4259 16.7855C19.2229 17.2503 18.9191 17.6652 18.536 18.0008C18.278 18.2273 17.9905 18.4185 17.6812 18.5694C17.2438 18.782 16.7794 18.9353 16.3006 19.025C16.1054 19.0656 15.9103 19.0945 15.7034 19.1216C15.6898 19.1216 15.6781 19.1216 15.6644 19.1264C13.3168 19.3948 10.3486 18.7065 7.96876 17.3888C6.34806 16.494 5.00155 15.3095 4.30585 13.9368C2.26363 9.90181 3.57404 5.16017 7.23306 3.34441C10.8921 1.52864 15.519 3.32703 17.5603 7.36592C18.2433 8.71737 18.8941 10.2117 19.3166 11.6751C19.3556 11.8083 19.3917 11.9386 19.4259 12.0699C19.8884 13.8181 19.9996 15.4958 19.4259 16.7855Z" fill="#FF62CF"/>
<path id="Vector_50" d="M20.274 19.4632C20.274 19.4632 19.7399 19.9695 19.4345 19.382C19.4075 19.329 19.3845 19.274 19.3658 19.2175C19.2981 19.0259 19.1985 18.8473 19.0712 18.6894C19.026 18.6325 18.9778 18.5779 18.9269 18.526C18.7749 18.3694 18.6044 18.2323 18.4193 18.1178C18.3309 18.0611 18.2391 18.0101 18.1443 17.9652L19.2411 16.3086C19.2527 16.4975 19.278 16.6852 19.3167 16.8704C19.3697 17.1299 19.461 17.3935 19.6172 17.4648C19.6644 17.4823 19.7162 17.4823 19.7635 17.4648C19.8089 17.4496 19.8511 17.4261 19.8882 17.3955C19.9333 17.3608 19.9746 17.3281 20.0138 17.3023C20.4724 17.0051 20.546 17.337 20.546 17.337C21.1784 17.9028 20.274 19.4632 20.274 19.4632Z" fill="#4285F4"/>
<path id="Vector_51" d="M19.8156 17.5078L19.0254 18.7069C18.9737 18.6513 18.9187 18.598 18.8606 18.5473C19.0904 18.265 19.4311 17.8018 19.6452 17.5078C19.7001 17.5255 19.7606 17.5255 19.8156 17.5078Z" fill="#444053"/>
<path id="Vector_52" d="M20.2385 19.4506C20.2385 19.4506 19.6656 19.9867 19.3381 19.3646C19.5769 19.1709 19.7757 18.9329 19.9236 18.6638C20.1089 18.2808 20.1626 17.5391 19.9583 17.1583C20.4501 16.8436 20.5291 17.195 20.5291 17.195C21.2084 17.7983 20.2385 19.4506 20.2385 19.4506Z" fill="#4285F4"/>
<path id="Vector_53" opacity="0.1" d="M20.2385 19.4506C20.2385 19.4506 19.6656 19.9867 19.3381 19.3646C19.5769 19.1709 19.7757 18.9329 19.9236 18.6638C20.1089 18.2808 20.1626 17.5391 19.9583 17.1583C20.4501 16.8436 20.5291 17.195 20.5291 17.195C21.2084 17.7983 20.2385 19.4506 20.2385 19.4506Z" fill="black"/>
<path id="Vector_54" opacity="0.1" d="M5.34085 6.47656C5.34085 6.47656 3.70452 8.01193 4.52993 9.35432C4.52993 9.35432 4.75881 8.95217 5.07676 8.77534C5.24213 8.69429 5.38413 8.57828 5.49101 8.43689C5.49101 8.43689 5.02912 7.69821 5.34085 6.47656Z" fill="white"/>
<path id="Vector_55" d="M48.174 19.5886C47.6719 23.5976 43.6556 26.3884 39.2016 25.8312C37.0398 25.5598 34.6592 25.0556 32.8402 24.1481C31.7842 23.6217 30.9203 22.9625 30.3962 22.133C30.1225 21.7094 29.9449 21.2307 29.8759 20.7308C29.8317 20.3936 29.8317 20.0519 29.8759 19.7146C29.9969 18.7456 30.4519 17.7207 31.1334 16.7314C33.2712 13.6337 37.6455 10.891 41.0206 11.3173C45.4718 11.8774 48.677 15.5805 48.174 19.5886Z" fill="#ED3DB7"/>
<path id="Vector_56" d="M30.7977 22.4767C30.6398 22.3806 30.4753 22.2965 30.3057 22.2251C30.0683 22.1257 29.807 22.0541 29.6702 22.1486C29.6491 22.163 29.631 22.1815 29.6169 22.2032C29.6028 22.2249 29.5929 22.2492 29.5878 22.2749C29.5766 22.321 29.5727 22.3687 29.5764 22.4161C29.5764 22.4738 29.5831 22.5275 29.5831 22.5742C29.5764 23.1291 29.2653 23.0038 29.2653 23.0038C28.4651 23.2176 27.7023 21.5847 27.7023 21.5847C27.7023 21.5847 27.5864 20.8527 28.2239 20.9243C28.2805 20.9309 28.3364 20.9418 28.3914 20.9572C28.5824 21.0088 28.7808 21.0246 28.9772 21.0039C29.0479 20.9982 29.1182 20.9879 29.1878 20.9731C29.3942 20.9311 29.5953 20.8643 29.7869 20.7742C29.8815 20.7306 29.9732 20.6808 30.0616 20.625L30.7977 22.4767Z" fill="#4285F4"/>
<path id="Vector_57" d="M29.604 22.1626C29.5822 22.1785 29.5635 22.199 29.5489 22.2229C29.5343 22.2469 29.5241 22.2738 29.5189 22.3022L28.8878 20.8974C28.9609 20.891 29.0336 20.8796 29.1054 20.8633C29.232 21.2315 29.4586 21.802 29.604 22.1626Z" fill="#444053"/>
<path id="Vector_58" d="M29.604 22.561C29.5972 23.1304 29.2827 23.0018 29.2827 23.0018C28.4736 23.2212 27.7023 21.5458 27.7023 21.5458C27.7023 21.5458 27.5853 20.7949 28.2298 20.8683C28.2559 21.1651 28.3371 21.4535 28.4688 21.7172C28.6662 22.0743 29.2082 22.5202 29.604 22.561Z" fill="#4285F4"/>
<path id="Vector_59" opacity="0.1" d="M29.604 22.561C29.5972 23.1304 29.2827 23.0018 29.2827 23.0018C28.4736 23.2212 27.7023 21.5458 27.7023 21.5458C27.7023 21.5458 27.5853 20.7949 28.2298 20.8683C28.2559 21.1651 28.3371 21.4535 28.4688 21.7172C28.6662 22.0743 29.2082 22.5202 29.604 22.561Z" fill="black"/>
<path id="Vector_60" opacity="0.1" d="M46.5547 16.3083C46.5547 16.3083 46.1287 14.0365 44.6448 13.9102C44.6448 13.9102 44.8532 14.3407 44.8394 14.7095C44.8232 14.8945 44.8465 15.0812 44.9074 15.2541C44.9074 15.2541 45.7274 15.3178 46.5547 16.3083Z" fill="white"/>
<path id="Vector_61" opacity="0.1" d="M32.8697 24.2194C31.7903 23.6918 30.9072 23.0313 30.3715 22.2C30.1281 22.1036 29.8602 22.0341 29.7199 22.1257C29.6983 22.1397 29.6798 22.1577 29.6653 22.1787C29.6508 22.1997 29.6407 22.2233 29.6355 22.2482C29.624 22.2929 29.62 22.3392 29.6238 22.3852C29.6238 22.4411 29.6306 22.4932 29.6306 22.5385C29.6238 23.0766 29.3048 22.9551 29.3048 22.9551C28.4845 23.1624 27.7025 21.579 27.7025 21.579C27.7025 21.579 27.5837 20.8692 28.2372 20.9386C28.2952 20.945 28.3526 20.9556 28.409 20.9704C28.6048 21.0205 28.8082 21.0358 29.0095 21.0158C29.082 21.0102 29.1541 21.0002 29.2254 20.9859C29.437 20.9452 29.6432 20.8804 29.8396 20.793C29.7945 20.455 29.7945 20.1127 29.8396 19.7746C29.9633 18.8035 30.4284 17.7765 31.1251 16.7852C32.2947 19.2606 33.2249 22.0679 32.8697 24.2194Z" fill="black"/>
<path id="Vector_62" opacity="0.1" d="M29.604 27.4863C29.4002 27.5827 29.1906 27.6658 28.9764 27.735C28.7809 27.7981 28.5824 27.851 28.3816 27.8933L28.2483 27.9208C28.0745 27.9532 27.8939 27.9808 27.7114 28.0014C27.5734 28.0191 27.4343 28.0309 27.2914 28.0397C24.6167 28.2167 21.2623 27.2022 18.9004 25.4612C18.2486 24.9898 17.6621 24.4314 17.1566 23.8008C16.8919 23.4655 16.6621 23.1031 16.471 22.7194C15.9249 21.6169 15.6049 20.4128 15.5305 19.1804C15.5238 19.0496 15.519 18.9228 15.519 18.794C15.4813 15.9431 16.8302 13.2888 19.2567 11.9922C19.7125 13.7764 19.8207 15.485 19.2567 16.7984C19.3089 17.056 19.3987 17.3174 19.5522 17.3882C19.5987 17.4055 19.6496 17.4055 19.6961 17.3882C19.7407 17.3731 19.7823 17.3498 19.8187 17.3194C19.8631 17.285 19.9037 17.2526 19.9423 17.227C20.3932 16.9321 20.4657 17.2614 20.4657 17.2614C21.0885 17.8286 20.1992 19.375 20.1992 19.375C20.1992 19.375 19.6739 19.8773 19.3736 19.2944C19.347 19.2418 19.3244 19.1873 19.306 19.1312C19.2394 18.941 19.1414 18.7638 19.0163 18.6072C18.9718 18.5507 18.9244 18.4966 18.8744 18.445C18.7249 18.2897 18.5572 18.1537 18.3752 18.04C18.1199 18.2706 17.8354 18.4653 17.5293 18.619C17.0964 18.8356 16.6369 18.9916 16.163 19.083C16.2712 19.1332 16.3745 19.1863 16.4788 19.2393C17.5322 19.784 18.3935 20.4652 18.9149 21.3156C19.1515 21.4139 19.4151 21.4896 19.5551 21.3981C19.5961 21.3686 19.6258 21.3255 19.6391 21.2763C19.6511 21.2298 19.6547 21.1815 19.6497 21.1337C19.6497 21.0767 19.6497 21.0256 19.6497 20.9774C19.6633 20.4308 19.9742 20.5576 19.9742 20.5576C20.7843 20.3551 21.5375 21.9742 21.5375 21.9742C21.5375 21.9742 21.6475 22.6997 21.0054 22.6221C20.9478 22.6163 20.8909 22.6048 20.8355 22.5877C20.6439 22.536 20.4449 22.5187 20.2474 22.5365C20.1755 22.5415 20.1039 22.551 20.0331 22.565C19.8232 22.603 19.6186 22.6668 19.4238 22.7548C19.4664 23.0996 19.4641 23.4487 19.417 23.7929C19.4083 23.8529 19.3987 23.9128 19.39 23.9748C19.4083 23.9748 19.4257 23.9816 19.4441 23.9836C20.7483 24.1805 22.0346 24.4856 23.29 24.8959C23.6762 25.0266 24.0499 25.1662 24.4091 25.3255C24.6592 25.4326 24.9025 25.5477 25.1372 25.6696C26.1906 26.2142 27.0529 26.8954 27.5734 27.7458C27.8109 27.8441 28.0745 27.9198 28.2145 27.8284C28.2555 27.799 28.2849 27.7558 28.2975 27.7065C28.3103 27.6602 28.3143 27.6118 28.3091 27.5639C28.3091 27.5069 28.3043 27.4558 28.3043 27.4076C28.3178 26.861 28.6297 26.9879 28.6297 26.9879C28.9812 26.8945 29.3288 27.1619 29.604 27.4863Z" fill="black"/>
<g id="Group_3" opacity="0.1">
<path id="Vector_63" opacity="0.1" d="M18.3288 16.5623C18.2286 16.7065 18.0959 16.8248 17.9414 16.9076C17.6451 17.0895 17.4302 17.501 17.4302 17.501C16.6555 16.1285 18.1903 14.5586 18.1903 14.5586C17.8988 15.8085 18.3288 16.5623 18.3288 16.5623Z" fill="black"/>
<path id="Vector_64" opacity="0.1" d="M30.375 15.3825C30.5173 15.6685 30.6597 15.9661 30.7981 16.2579C29.8753 17.3853 28.8392 18.2393 27.712 18.5642C27.5523 18.7684 27.4138 19.0029 27.4612 19.1614C27.4691 19.1859 27.4817 19.2085 27.4983 19.228C27.5149 19.2476 27.5352 19.2636 27.5581 19.2752C27.5979 19.3005 27.6423 19.3177 27.6888 19.3258C27.7386 19.3355 27.7877 19.3482 27.836 19.3637C28.3521 19.5232 28.1458 19.7917 28.1458 19.7917C28.1168 20.6321 26.3728 20.921 26.3728 20.921C26.3728 20.921 25.6553 20.8296 25.907 20.2294C25.9291 20.1762 25.9554 20.1248 25.9855 20.0757C26.0881 19.9031 26.1602 19.7138 26.1985 19.5164C26.2121 19.4454 26.2237 19.3754 26.2305 19.3054C26.2502 19.0909 26.2456 18.8749 26.2169 18.6614C25.8786 18.6092 25.5489 18.5111 25.2369 18.3696C23.0378 17.4018 21.0905 14.4157 20.2374 11.2691C23.8483 9.54254 28.3666 11.3585 30.375 15.3825Z" fill="black"/>
<path id="Vector_65" opacity="0.1" d="M32.2206 24.8777C32.0194 25.3467 31.7182 25.7657 31.3384 26.1052C31.2514 26.0491 31.1609 25.9987 31.0673 25.9545L32.1489 24.3281C32.1603 24.5127 32.1842 24.6964 32.2206 24.8777Z" fill="black"/>
<path id="Vector_66" opacity="0.1" d="M33.1647 27.4251C33.1647 27.4251 32.6379 27.9222 32.3368 27.3454C32.3097 27.2936 32.2871 27.2396 32.269 27.1839C32.2031 26.9957 32.1048 26.8205 31.9785 26.6665C31.9346 26.6096 31.8871 26.5556 31.8362 26.505C31.686 26.3519 31.5179 26.2176 31.3355 26.1052C31.2485 26.0491 31.158 25.9987 31.0644 25.9545L32.146 24.3281C32.1574 24.5127 32.1813 24.6964 32.2177 24.8777C32.2719 25.1325 32.3629 25.3932 32.5169 25.4613C32.5633 25.4794 32.6148 25.4794 32.6612 25.4613C32.7058 25.4466 32.7472 25.4235 32.7832 25.3932C32.8232 25.3608 32.8649 25.3307 32.9081 25.3028C33.3603 25.0051 33.433 25.3368 33.433 25.3368C34.0604 25.8961 33.1647 27.4251 33.1647 27.4251Z" fill="black"/>
<path id="Vector_67" opacity="0.1" d="M32.6651 25.458L31.9805 26.6632C31.9362 26.6075 31.889 26.5543 31.8391 26.5036C32.0376 26.2177 32.333 25.7527 32.517 25.457C32.5644 25.4764 32.6174 25.4768 32.6651 25.458Z" fill="black"/>
<path id="Vector_68" opacity="0.1" d="M33.1647 27.4235C33.1647 27.4235 32.6379 27.9205 32.3368 27.3437C32.5563 27.1655 32.7388 26.9457 32.8742 26.6969C33.0456 26.3419 33.094 25.6542 32.9071 25.3011C33.3593 25.0093 33.4329 25.3351 33.4329 25.3351C34.0604 25.8935 33.1647 27.4235 33.1647 27.4235Z" fill="black"/>
<path id="Vector_69" opacity="0.1" d="M33.1647 27.4235C33.1647 27.4235 32.6379 27.9205 32.3368 27.3437C32.5563 27.1655 32.7388 26.9457 32.8742 26.6969C33.0456 26.3419 33.094 25.6542 32.9071 25.3011C33.3593 25.0093 33.4329 25.3351 33.4329 25.3351C34.0604 25.8935 33.1647 27.4235 33.1647 27.4235Z" fill="black"/>
<path id="Vector_70" opacity="0.1" d="M18.3288 16.5623C18.2286 16.7065 18.0959 16.8248 17.9414 16.9076C17.6451 17.0895 17.4302 17.501 17.4302 17.501C16.6555 16.1285 18.1903 14.5586 18.1903 14.5586C17.8988 15.8085 18.3288 16.5623 18.3288 16.5623Z" fill="black"/>
</g>
<path id="Vector_71" d="M30.218 15.8258C32.2619 19.9184 33.9946 25.3536 30.3341 27.1957C26.6735 29.0378 19.0041 26.5905 16.9602 22.495C14.9162 18.3995 16.2275 13.591 19.887 11.7489C23.5466 9.90686 28.174 11.7333 30.218 15.8258Z" fill="#F953C6"/>
<path id="Vector_72" d="M32.9271 27.8584C32.9271 27.8584 32.3935 28.3638 32.0885 27.7762C32.0625 27.7232 32.0399 27.6686 32.0208 27.6126C31.954 27.4203 31.8544 27.2412 31.7266 27.0835C31.6816 27.0263 31.6335 26.9717 31.5824 26.9199C31.3546 26.6889 31.0892 26.4992 30.7977 26.3591L31.8943 24.7031C31.8943 24.7031 31.9443 25.7169 32.269 25.8537C32.3166 25.8726 32.3695 25.8726 32.4171 25.8537C32.462 25.8376 32.5038 25.8138 32.5407 25.7833C32.5858 25.7476 32.628 25.7169 32.6662 25.6911C33.1243 25.3889 33.1988 25.7248 33.1988 25.7248C33.8324 26.2986 32.9271 27.8584 32.9271 27.8584Z" fill="#6166CF"/>
<path id="Vector_73" d="M32.4689 25.9004L31.6785 27.0975C31.6272 27.0417 31.5722 26.9885 31.5139 26.9381C31.7378 26.655 32.0849 26.1922 32.2976 25.8984C32.3523 25.918 32.4136 25.9187 32.4689 25.9004Z" fill="#444053"/>
<path id="Vector_74" d="M32.9796 27.8639C32.9796 27.8639 32.5028 28.35 32.2302 27.7848C32.4295 27.6092 32.5953 27.3929 32.7184 27.1482C32.8726 26.8003 32.9173 26.1265 32.7473 25.7815C33.1566 25.4908 33.2232 25.8139 33.2232 25.8139C33.7886 26.3638 32.9796 27.8639 32.9796 27.8639Z" fill="#6166CF"/>
<path id="Vector_75" opacity="0.1" d="M32.9796 27.8639C32.9796 27.8639 32.5028 28.35 32.2302 27.7848C32.4295 27.6092 32.5953 27.3929 32.7184 27.1482C32.8726 26.8003 32.9173 26.1265 32.7473 25.7815C33.1566 25.4908 33.2232 25.8139 33.2232 25.8139C33.7886 26.3638 32.9796 27.8639 32.9796 27.8639Z" fill="black"/>
<path id="Vector_76" opacity="0.1" d="M17.9942 15.1094C17.9942 15.1094 16.3579 16.6447 17.1833 17.9871C17.1833 17.9871 17.4132 17.5859 17.7301 17.4082C17.8955 17.3271 18.0375 17.2111 18.1444 17.0697C18.1444 17.0697 17.6835 16.331 17.9942 15.1094Z" fill="white"/>
<path id="Vector_77" d="M32.0054 26.6211C31.3845 27.0641 31.344 28.126 31.9291 28.6179C32.6504 29.2232 33.7281 28.8437 34.6599 28.9454C35.5917 29.0471 36.4096 29.6651 37.0015 30.4054C37.5565 31.1092 37.9532 31.9271 38.164 32.8021C38.3748 33.6771 38.3946 34.5881 38.222 35.4716C38.0395 36.3722 37.6581 37.2229 37.4853 38.1255C37.2786 39.207 37.38 40.3237 37.5104 41.4179C37.6069 42.2335 37.7267 43.0695 38.1197 43.7882C38.7444 44.9294 39.9621 45.6022 41.1759 46.0373C42.3896 46.4724 43.6739 46.7413 44.8046 47.3662C45.5752 47.7987 46.2512 48.385 46.7918 49.0895C47.3323 49.7941 47.7262 50.6023 47.9496 51.4653C47.9961 51.5977 47.9995 51.7416 47.9593 51.876C47.9062 52.0051 47.7362 52.0912 47.6252 52.009" stroke="#0A345A" stroke-miterlimit="10"/>
<path id="Vector_78" d="M28.6595 28.5391C28.5998 28.8223 28.8041 29.1173 29.0739 29.215C29.2113 29.2566 29.3562 29.2667 29.4979 29.2445C29.6396 29.2223 29.7747 29.1684 29.8931 29.0867C30.1863 28.8982 30.4493 28.5815 30.7992 28.5933C31.0534 28.6002 31.2675 28.7857 31.4258 28.988C31.5842 29.1903 31.7113 29.4192 31.9087 29.5801C32.08 29.7106 32.2775 29.8015 32.4874 29.8465C32.7343 29.9181 32.9944 29.9306 33.247 29.883C33.7865 29.7636 34.1824 29.2781 34.7132 29.1232C35.4151 28.919 36.1404 29.3373 36.7025 29.808C37.376 30.3714 37.9821 31.0602 38.2616 31.8969C38.4474 32.4505 38.4825 33.0406 38.5549 33.6198C38.6272 34.199 38.7563 34.792 39.0925 35.2667C39.4288 35.7413 40.0221 36.0738 40.5862 35.9455" stroke="#0A345A" stroke-miterlimit="10"/>
<path id="Vector_79" d="M72.3548 29.3974C72.3548 29.3974 69.2887 27.6639 69.0319 27.4876C68.7752 27.3113 69.0319 27.0649 69.0319 27.0649C68.5408 26.7474 67.5216 27.3999 67.5216 27.3999C67.5216 27.3999 67.8927 27.4925 68.2434 27.6045C66.9704 27.2704 64.8411 26.6442 63.7561 25.9401C62.9142 25.3937 62.178 25.5505 61.6675 25.8232L61.6558 25.7911C61.526 25.3849 61.5473 24.9408 61.3904 24.5435C61.1966 24.0565 60.7287 23.7127 60.2153 23.6105C59.9247 23.552 59.8733 23.5822 59.7009 23.3602C59.4955 23.0953 59.3337 22.9989 58.9918 22.9248C58.6042 22.8421 58.2167 22.7593 57.8176 22.7865C57.4185 22.8138 57.0194 22.9677 56.784 23.2735C56.6522 23.4478 56.5795 23.6582 56.4507 23.8345C55.8307 24.6788 54.3524 24.2951 53.5628 24.9924C53.0785 25.4229 53 26.128 52.8915 26.7611C52.783 27.3941 52.5272 28.108 51.9072 28.3193C51.6118 28.4167 51.2892 28.3826 50.9772 28.404C50.6653 28.4255 50.3204 28.5346 50.1838 28.8092C50.1334 28.9194 50.1114 29.0407 50.1199 29.1617C50.1194 29.1695 50.1194 29.1773 50.1199 29.1851V29.1978C50.133 29.3784 50.1579 29.558 50.1945 29.7354C50.1945 29.7286 50.1945 29.7217 50.1945 29.7149C50.2294 29.9516 50.2303 30.1707 50.0608 30.3304C49.7159 30.6577 48.968 30.3587 48.753 30.7784C48.7233 30.8388 48.7102 30.9061 48.7152 30.9732C48.7168 31.0635 48.7366 31.1525 48.7734 31.2348C48.8102 31.3172 48.8632 31.3912 48.9293 31.4524C49.093 31.6179 49.3023 31.7445 49.4369 31.9306C49.4925 32.0087 49.5332 32.0966 49.557 32.1896C49.5585 32.1808 49.5605 32.172 49.5629 32.1633C49.5978 32.3102 49.5918 32.4638 49.5454 32.6074C48.411 32.5617 46.736 32.4565 46.3941 32.2276C45.8709 31.8751 43.418 31.279 43.418 31.279L43.3899 31.2615L43.3095 31.2147L43.234 31.1729L43.2194 31.1651C43.1904 31.1495 43.1594 31.1329 43.1226 31.1164H43.1158L43.0189 31.0677L43.0015 31.0599L42.8891 31.0102L42.8697 31.0015C42.8339 30.9868 42.7971 30.9722 42.7593 30.9586L42.7467 30.9537C42.707 30.9391 42.6663 30.9265 42.6266 30.9138L42.6053 30.908C42.5265 30.8849 42.4457 30.8696 42.364 30.8622H42.3543H42.3069H42.2827H42.242L42.2119 30.8671C42.2015 30.8684 42.1912 30.8704 42.1809 30.8729C42.1614 30.8778 42.1423 30.8843 42.1238 30.8924C42.0834 30.9171 42.0521 30.9544 42.0347 30.9985L41.8603 30.9313L38.8232 29.7519C38.8232 29.7519 38.457 29.5572 38.2953 29.4344C37.7748 29.1503 37.2171 28.9411 36.6387 28.8131L36.6174 28.7985V28.8082C35.9489 28.6875 35.3812 28.8082 35.5808 29.6545C36.0012 31.4387 38.3137 31.2274 38.3137 31.2274L41.591 32.6318L41.806 32.7243C41.7867 33.7099 41.8835 34.7491 42.1286 34.8864C42.1684 34.9092 42.2095 34.9296 42.2517 34.9477L42.2778 34.9604C42.3175 34.9779 42.3572 34.9935 42.396 35.0062H42.4047C42.4435 35.0198 42.4813 35.0305 42.5171 35.0403H42.5336C42.5723 35.051 42.6111 35.0588 42.6469 35.0656C42.7695 35.0889 42.8942 35.0987 43.0189 35.0948H43.0499H43.0615L43.0431 33.9144C43.0808 33.9286 43.1174 33.9455 43.1526 33.9651C43.2728 34.0326 43.3872 34.1101 43.4946 34.1968C43.7852 34.4257 45.713 34.6546 45.713 34.6546C45.713 34.6546 47.5537 35.3412 47.6612 35.4834C47.7687 35.6256 53.0358 35.7824 53.0358 35.7824C53.0358 35.7824 52.3151 37.403 54.3165 39.0245C54.3165 39.0245 54.6585 41.1379 54.4425 41.7193C54.3069 42.0845 54.2768 42.7556 54.2739 43.2035C53.6161 43.4373 52.0458 44.0323 51.6466 44.529C51.1332 45.1631 50.7273 45.163 50.7273 45.163C50.7273 45.163 50.2129 46.137 49.5909 46.3785C48.969 46.62 46.9666 47.7001 46.7767 47.9903C46.5868 48.2805 44.9099 49.2564 44.9099 49.2564C44.9099 49.2564 43.1778 50.6306 42.8533 51.1321C42.5287 51.6337 40.256 52.5862 40.256 52.5862C40.256 52.5862 39.6341 53.4627 39.823 54.383C40.0119 55.3034 38.2904 54.8057 39.7871 56.3649C40.1388 56.7311 40.7743 57.1207 41.5658 57.5395C41.5096 57.5736 41.4534 57.6037 41.3982 57.631C41.3098 57.6759 41.2174 57.7121 41.1221 57.7391C40.2289 57.9768 37.6859 62.072 37.6859 62.072C37.6859 62.072 36.1291 64.0374 34.925 64.7532C34.8843 64.7775 34.8436 64.7999 34.8039 64.8214C34.707 64.5915 34.334 64.3646 33.9543 64.1893C33.5243 63.995 33.0666 63.8698 32.598 63.8183C32.2909 63.7812 31.8995 63.6926 31.6506 63.4823C31.4261 63.2917 31.1695 63.1429 30.893 63.043C30.5171 62.9242 30.2071 63.0226 30.3602 63.7384C30.5051 64.4497 30.7804 65.1277 31.172 65.7378C31.172 65.7378 32.8412 67.2084 32.9942 67.7285C33.1473 68.2486 33.8419 68.83 33.9504 68.7589C33.9853 68.7355 34.1674 68.6245 34.397 68.4667C34.8659 68.1541 35.5343 67.6623 35.5731 67.3808C35.5731 67.374 35.4956 67.3886 35.3793 67.3964C35.3948 67.3672 35.4132 67.3331 35.4355 67.2932C35.6554 66.9036 36.2027 66.0203 36.847 65.7164L39.418 63.2388C39.418 63.2388 42.1509 61.812 42.6149 60.7553C42.8087 60.3141 43.4868 59.6704 44.2192 59.0705L44.38 58.939C46.5578 60.0181 48.8605 61.2764 49.8932 62.7635C51.3783 64.9061 54.7302 65.6959 56.3015 65.954C56.3112 66.0767 56.319 66.1946 56.3238 66.3046C56.351 66.764 56.3266 67.225 56.2511 67.6788C56.1698 68.1541 56.1911 71.854 56.1911 71.854C56.1911 71.854 56.3596 73.756 55.8724 74.3637C55.6224 74.6763 55.4287 75.4214 55.2998 76.071C55.2921 76.1099 55.2853 76.1489 55.2775 76.1879C55.0518 76.2911 54.8707 76.5161 54.7719 76.9193C54.7719 76.9193 54.3572 77.192 54.457 78.2749C54.4812 78.5369 54.489 78.7619 54.5006 78.9567C54.5384 79.5712 54.6052 79.8634 55.2688 79.8566C56.1407 79.8478 57.9649 78.9499 57.9649 78.9499C57.976 78.7659 57.9695 78.5813 57.9455 78.3986C57.91 78.0453 57.79 77.7058 57.5958 77.4091L57.6026 77.3906L57.6229 77.3429C57.6403 77.3001 57.6568 77.2523 57.6723 77.2036L57.6781 77.191C57.7156 77.0794 57.7365 76.9629 57.7401 76.8452V75.6074C57.7401 75.6074 57.7944 73.8105 58.2245 72.859C58.5732 72.0926 59.5013 68.5125 59.5653 66.6942C59.5731 66.5237 59.5699 66.3529 59.5556 66.1829C59.6086 66.167 59.6551 66.1344 59.6883 66.0898C59.7214 66.0453 59.7394 65.9912 59.7396 65.9355C59.7125 65.2479 59.1719 65.5654 59.4422 64.2176C59.7125 62.8697 59.9024 61.2053 60.3887 60.4125C60.7311 59.8279 61.0296 59.2185 61.2819 58.5893C61.2819 58.5893 62.3097 55.1008 62.7428 54.2555C63.1758 53.4101 64.8266 47.9134 62.2022 45.35L62.0588 44.792C62.0588 44.792 62.0588 44.7832 62.0675 44.7735C62.083 44.7394 62.1257 44.644 62.1809 44.5115C62.2274 44.4024 62.2778 44.2671 62.3359 44.1219C62.3669 44.0382 62.3969 43.9505 62.427 43.8619C62.4706 43.7304 62.5093 43.596 62.5393 43.4723L62.5539 43.4081C63.3928 43.6028 63.8995 43.001 64.1039 42.6845C64.2172 42.6192 64.2637 42.5569 64.2066 42.5023C63.882 42.1848 64.1717 41.4982 64.1717 41.4982L64.1882 38.5035C64.1882 38.5035 64.5669 38.4324 64.658 37.3757C64.7086 36.7457 64.9745 36.1528 65.4107 35.6976C66.2225 34.8007 68.4759 33.8268 68.4759 33.8268C70.0976 33.2931 72.5175 30.9596 72.5175 30.9596C73.8156 29.8844 72.3548 29.3974 72.3548 29.3974ZM68.8014 30.6061C68.2966 30.7112 67.1603 31.278 67.1603 31.278C67.1603 31.278 66.4764 31.4514 65.8612 31.6842C65.246 31.9169 64.4546 31.5634 64.4546 31.5634C64.0399 31.0034 62.6333 31.8069 62.3078 32.0007C62.0617 32.1477 61.8564 32.0981 61.6219 31.8926C61.5382 31.817 61.4602 31.7353 61.3885 31.6481C61.3203 31.568 61.2391 31.5001 61.1482 31.4475C61.2541 31.2607 61.3874 31.091 61.5435 30.944C61.8854 30.609 62.2904 30.3392 62.6352 30.0061C62.9801 29.673 63.2737 29.2533 63.3046 28.7809C63.3046 28.7605 63.3046 28.74 63.3046 28.7196C63.3129 28.4241 63.2402 28.132 63.0944 27.8752C63.3794 27.9373 63.668 27.9813 63.9586 28.0067C64.783 28.0573 65.7992 28.4732 66.4056 28.7605L66.5306 28.8199L66.4638 28.8433L66.488 28.8744L66.4638 28.8822L66.4696 28.89L66.518 28.9533L66.5248 28.9611C66.548 28.9913 66.5771 29.0283 66.612 29.0712L66.6226 29.0838C66.6585 29.1277 66.6992 29.1754 66.7437 29.226L66.7554 29.2397C66.8009 29.2913 66.8522 29.3448 66.9016 29.3984L66.9152 29.412C66.9617 29.4598 67.0121 29.5094 67.0595 29.5542C67.1263 29.6165 67.1961 29.6754 67.2688 29.7305L67.2766 29.7354C67.3327 29.7775 67.3916 29.8159 67.4529 29.8503L67.4703 29.86C67.4976 29.8746 67.5258 29.8876 67.5546 29.899C68.039 30.0938 68.2937 29.6351 68.2937 29.6351C68.3632 29.6544 68.4305 29.6812 68.4943 29.7149C68.9893 29.9633 69.2489 30.5155 68.8014 30.6061Z" fill="url(#paint0_linear_2191_80313)"/>
<path id="Vector_80" d="M68.5191 28.038V28.6012L66.239 29.2573C66.239 29.2573 66.0304 29.135 65.7059 28.9742C65.1077 28.676 64.1167 28.2422 63.3079 28.1896C62.0617 28.1057 57.9653 26.8267 59.1979 26.5386C60.4305 26.2504 60.3341 26.5386 60.3341 26.5386C60.3341 26.5386 61.5316 24.9542 63.1101 26.0411C64.3087 26.8682 66.808 27.5911 67.9403 27.8914C68.2988 27.9814 68.5191 28.038 68.5191 28.038Z" fill="#FFE1D4"/>
<path id="Vector_81" d="M58.6074 23.1656C58.2331 23.0842 57.8512 23.0018 57.4693 23.0286C57.0873 23.0554 56.6977 23.2078 56.4652 23.5135C56.3379 23.6851 56.2675 23.8969 56.1421 24.0665C55.5412 24.9002 54.1061 24.5217 53.3403 25.2098C52.8677 25.6343 52.7954 26.3301 52.6902 26.9549C52.5851 27.5797 52.3363 28.2841 51.7344 28.493C51.4451 28.5889 51.1345 28.5553 50.8326 28.5754C50.5307 28.5956 50.1961 28.7048 50.061 28.9751C49.8324 29.4427 50.3234 30.1155 49.9472 30.4777C49.6116 30.7997 48.8863 30.5046 48.678 30.9195C48.5757 31.1227 48.6905 31.3709 48.8487 31.5348C49.0068 31.6986 49.2104 31.8223 49.3415 32.0063C49.4254 32.1252 49.4753 32.2644 49.4861 32.4092C49.4968 32.554 49.4681 32.699 49.4027 32.8288C49.3374 32.9587 49.238 33.0687 49.115 33.147C48.9921 33.2254 48.85 33.2693 48.704 33.2741C48.4388 33.2828 48.1388 33.1697 47.9266 33.3297C47.8638 33.3871 47.8153 33.4581 47.7848 33.5373C47.7543 33.6164 47.7428 33.7015 47.7511 33.7859C47.7709 34.077 47.9032 34.3493 48.1203 34.5457C48.3375 34.7422 48.6226 34.8476 48.9162 34.84C49.3666 34.8113 49.7466 34.5161 50.1179 34.265C50.4893 34.014 50.9378 33.7782 51.3718 33.8923C51.5738 33.9606 51.7639 34.0598 51.935 34.1865C52.4606 34.5196 53.0372 34.7656 53.6422 34.9148C54.1746 35.0461 54.7803 35.0883 55.2326 34.7797C55.7448 34.4308 55.9367 33.7169 56.4864 33.438C57.0651 33.1457 57.7509 33.4543 58.3469 33.7111C58.943 33.968 59.7233 34.1414 60.1718 33.6747C60.654 33.1716 60.3753 32.3254 60.6251 31.6756C60.7283 31.4319 60.8821 31.2124 61.0764 31.0316C61.4082 30.7001 61.8008 30.4336 62.1374 30.1059C62.474 29.7781 62.7575 29.3632 62.7865 28.8965C62.8231 28.3349 62.4885 27.8193 62.1277 27.3852C61.767 26.9511 61.3561 26.5313 61.1874 25.9937C61.062 25.5931 61.0822 25.1551 60.9298 24.7632C60.8311 24.5281 60.6753 24.321 60.4764 24.1603C60.2775 23.9996 60.0416 23.8903 59.7898 23.8422C59.5005 23.7847 59.458 23.8144 59.2902 23.594C59.213 23.479 59.1123 23.3814 58.9947 23.3076C58.877 23.2338 58.7451 23.1855 58.6074 23.1656Z" fill="#804B35"/>
<g id="Group_4" opacity="0.1">
<path id="Vector_82" opacity="0.1" d="M49.9296 29.1484C49.8764 29.3819 49.9451 29.6494 49.9829 29.9003C50.041 29.6815 49.9674 29.413 49.9296 29.1484Z" fill="black"/>
<path id="Vector_83" opacity="0.1" d="M49.2498 32.0941C49.3041 32.1728 49.3435 32.2608 49.366 32.3539C49.396 32.2386 49.4011 32.1182 49.3811 32.0008C49.3611 31.8834 49.3163 31.7716 49.2498 31.673C49.1181 31.4843 48.9148 31.3607 48.755 31.1944C48.6912 31.1284 48.6389 31.0521 48.6001 30.9688C48.594 30.9768 48.5885 30.9852 48.5836 30.994C48.481 31.2002 48.5962 31.4522 48.755 31.6185C48.9138 31.7848 49.1181 31.9054 49.2498 32.0941Z" fill="black"/>
<path id="Vector_84" opacity="0.1" d="M62.0998 29.7427C61.7638 30.0763 61.3697 30.3457 61.0346 30.6823C60.8396 30.8662 60.6852 31.0892 60.5815 31.3369C60.3307 31.9964 60.6115 32.8543 60.1263 33.3649C59.6761 33.8386 58.8927 33.6626 58.2942 33.4019C57.6958 33.1412 57.0073 32.828 56.4263 33.1247C55.8714 33.4087 55.6787 34.1343 55.1675 34.4864C54.7133 34.7996 54.1023 34.7568 53.5707 34.6236C52.9632 34.4721 52.3844 34.2224 51.8567 33.8843C51.6848 33.7558 51.494 33.655 51.2912 33.5857C50.8535 33.47 50.4042 33.7073 50.0323 33.9651C49.6605 34.2228 49.278 34.5215 48.8258 34.5487C48.3038 34.5827 47.8013 34.1781 47.6822 33.6733C47.6624 33.7465 47.6536 33.8222 47.656 33.898C47.6762 34.1934 47.8091 34.4696 48.027 34.6689C48.245 34.8683 48.5311 34.9754 48.8258 34.9679C49.278 34.9387 49.6595 34.6391 50.0323 34.3843C50.4052 34.1295 50.8554 33.8902 51.2912 34.0059C51.494 34.0749 51.6848 34.1753 51.8567 34.3036C52.3841 34.6424 52.963 34.8924 53.5707 35.0438C54.1052 35.1761 54.7133 35.2189 55.1675 34.9066C55.6816 34.5526 55.8743 33.8279 56.4263 33.5449C57.0073 33.2472 57.6958 33.5604 58.2942 33.8211C58.8927 34.0818 59.6761 34.2579 60.1263 33.7842C60.6105 33.2745 60.3307 32.4156 60.5815 31.7561C60.6855 31.5086 60.8398 31.2856 61.0346 31.1015C61.3678 30.7659 61.7619 30.4955 62.0998 30.1629C62.4378 29.8302 62.7225 29.4081 62.7515 28.9353C62.7579 28.8356 62.753 28.7354 62.737 28.6367C62.6702 29.0628 62.4087 29.4392 62.0998 29.7427Z" fill="black"/>
</g>
<path id="Vector_85" d="M62.8194 42.6875L63.7442 42.7536C63.7442 42.7536 63.0472 44.1422 61.5597 43.4566C60.0721 42.771 62.8194 42.6875 62.8194 42.6875Z" fill="#B73030"/>
<path id="Vector_86" opacity="0.1" d="M62.8194 42.6875L63.7442 42.7536C63.7442 42.7536 63.0472 44.1422 61.5597 43.4566C60.0721 42.771 62.8194 42.6875 62.8194 42.6875Z" fill="black"/>
<path id="Vector_87" d="M46.316 57.7072C46.316 57.7072 45.2287 58.4532 44.2319 59.2829C43.518 59.877 42.8509 60.5143 42.6632 60.9508C42.209 61.9977 39.5364 63.4147 39.5364 63.4147L37.0215 65.8747C36.3922 66.1756 35.8544 67.0476 35.6414 67.4359C35.5763 67.5542 35.5442 67.6282 35.5442 67.6282H34.4063L33.7187 66.9476C33.7187 66.9476 33.3482 65.2998 34.5123 65.1691C34.7391 65.1306 34.9551 65.0454 35.1464 64.9192C36.3251 64.2107 37.8471 62.2649 37.8471 62.2649C37.8471 62.2649 40.3349 58.21 41.2082 57.9745C41.3017 57.9479 41.3923 57.9122 41.4786 57.8678C42.3422 57.4371 43.4849 56.1172 43.4849 56.1172L46.316 57.7072Z" fill="#FFE1D4"/>
<path id="Vector_88" d="M59.204 66.8697C59.1393 68.7123 58.193 72.3415 57.8412 73.1181C57.4005 74.0827 57.3459 75.9047 57.3459 75.9047V77.1636C57.3376 77.3379 57.2972 77.5092 57.2266 77.6695C57.1894 77.7622 57.1465 77.8526 57.0982 77.9402L54.672 77.5386C54.672 77.5386 54.7367 77.0002 54.86 76.3762C54.9914 75.7167 55.1886 74.9617 55.4423 74.6457C55.9376 74.0296 55.7658 72.1003 55.7658 72.1003C55.7658 72.1003 55.7446 68.3501 55.8275 67.8678C55.9044 67.4075 55.9291 66.9405 55.9013 66.475C55.8901 66.225 55.8669 65.9405 55.8275 65.6176C55.69 64.4926 55.8275 62.832 55.8275 62.832L58.6065 62.9659L59.0735 65.9129C59.1858 66.0842 59.2211 66.4238 59.204 66.8697Z" fill="#FFE1D4"/>
<path id="Vector_89" opacity="0.1" d="M35.5726 67.439C35.5097 67.5541 35.4787 67.6262 35.4787 67.6262H34.3804L33.7168 66.9635C33.7168 66.9635 33.3591 65.359 34.4828 65.2317C34.7016 65.1942 34.9101 65.1113 35.0948 64.9883C35.2497 65.4563 34.7559 65.9366 34.7559 65.9366C34.7559 65.9366 34.5513 66.1313 34.7043 66.8876C34.8038 67.4006 35.2807 67.4512 35.5726 67.439Z" fill="black"/>
<path id="Vector_90" d="M35.8113 67.6874C35.7725 67.9686 35.1035 68.463 34.6352 68.7713C34.4056 68.9254 34.2236 69.0359 34.1888 69.0621C34.0805 69.1329 33.3856 68.5522 33.2325 68.0335C33.0794 67.5148 31.4102 66.0461 31.4102 66.0461C31.0177 65.4343 30.7428 64.7578 30.599 64.0499C30.4459 63.3354 30.756 63.2365 31.1308 63.3548C31.4083 63.4557 31.6649 63.6044 31.8884 63.794C32.1379 64.0044 32.5296 64.0926 32.8368 64.1294C33.3055 64.1816 33.7626 64.3067 34.1908 64.4998C34.5706 64.6752 34.9474 64.9011 35.0398 65.1309C35.2387 65.6331 34.6939 66.1518 34.6939 66.1518C34.6939 66.1518 34.4772 66.3534 34.6392 67.1367C34.8012 67.9201 35.8153 67.6612 35.8113 67.6874Z" fill="#444053"/>
<path id="Vector_91" opacity="0.1" d="M34.6176 68.7713C34.389 68.9254 34.2078 69.0359 34.1732 69.0621C34.0653 69.1329 33.3734 68.5522 33.2209 68.0335C33.0685 67.5148 31.4065 66.0461 31.4065 66.0461C31.0157 65.4343 30.742 64.7578 30.5988 64.0499C30.4463 63.3354 30.7552 63.2365 31.1284 63.3548C31.263 63.9191 31.5599 65.0126 31.9371 65.5536C32.3855 66.1944 34.1415 68.2226 34.6176 68.7713Z" fill="black"/>
<path id="Vector_92" opacity="0.1" d="M57.2186 77.6193L57.2461 77.661C57.2086 77.7566 57.1654 77.8499 57.1168 77.9404L54.6719 77.5259C54.6719 77.5259 54.7371 76.9701 54.8614 76.326C55.7568 75.9439 57.2981 77.3907 57.2981 77.3907L57.2186 77.6193Z" fill="black"/>
<path id="Vector_93" d="M57.5314 79.1702C57.5314 79.1702 55.8062 80.0897 54.9784 80.0986C54.3494 80.1056 54.2863 79.8064 54.2505 79.1781C54.2401 78.9793 54.2316 78.7438 54.209 78.4754C54.1149 77.367 54.5076 77.0838 54.5076 77.0838C54.9605 75.0818 57.2602 77.3661 57.2602 77.3661L57.1821 77.5897C57.3667 77.895 57.4803 78.2421 57.5135 78.6026C57.5366 78.7908 57.5425 78.9808 57.5314 79.1702Z" fill="#444053"/>
<path id="Vector_94" opacity="0.1" d="M57.5315 79.1997C57.5315 79.1997 55.7768 80.0864 54.9349 80.095C54.295 80.1017 54.2309 79.8132 54.1945 79.2074C54.4236 79.3521 54.6801 79.4478 54.948 79.4884C55.2159 79.529 55.4893 79.5136 55.7509 79.4432C56.3771 79.2782 56.9723 79.0124 57.5133 78.6562C57.5365 78.8364 57.5426 79.0184 57.5315 79.1997Z" fill="black"/>
<path id="Vector_95" d="M60.8793 32.646L60.5774 35.9982L60.5153 36.6912L59.2095 37.0446L57.8636 37.4099L56.3036 37.0515C56.3036 37.0515 55.7037 35.6408 55.9082 34.4924C55.9671 34.0852 56.1717 33.7158 56.4813 33.4578C56.5785 33.3801 56.6655 33.2895 56.7402 33.1885C56.8265 33.0718 56.8927 32.9405 56.936 32.8004C56.9878 32.628 57.0092 32.4472 56.9991 32.2668C56.9628 31.3758 56.3075 30.4947 56.3075 30.4947C56.3075 30.4947 59.3232 28.9503 59.1675 29.7027C59.0662 30.1918 59.6136 30.9452 60.01 31.4135C60.2259 31.6679 60.3921 31.8392 60.3921 31.8392L60.8793 32.646Z" fill="#FFE1D4"/>
<path id="Vector_96" opacity="0.1" d="M57.4175 31.8961C58.9338 31.8961 60.163 30.6077 60.163 29.0184C60.163 27.429 58.9338 26.1406 57.4175 26.1406C55.9012 26.1406 54.672 27.429 54.672 29.0184C54.672 30.6077 55.9012 31.8961 57.4175 31.8961Z" fill="black"/>
<path id="Vector_97" d="M57.4175 31.6563C58.9338 31.6563 60.163 30.4216 60.163 28.8985C60.163 27.3754 58.9338 26.1406 57.4175 26.1406C55.9012 26.1406 54.672 27.3754 54.672 28.8985C54.672 30.4216 55.9012 31.6563 57.4175 31.6563Z" fill="#FFE1D4"/>
<path id="Vector_98" d="M62.065 43.37C62.0127 44.0046 61.5359 45.0536 61.5359 45.0536L57.7765 46.5248L54.6257 43.9773C54.6257 43.9773 54.6257 43.9715 54.6257 43.9598C54.6761 43.6751 55.2877 40.0913 54.4115 39.3426C53.4966 38.5626 53.4782 36.0357 53.4782 36.0357C53.4782 36.0357 54.6567 34.2457 54.8893 33.8216C55.1219 33.3975 56.8858 32.8555 56.8858 32.8555C56.8102 32.989 56.7443 33.1167 56.6871 33.2376C56.5301 33.5539 56.4223 33.8926 56.3673 34.2418C56.2898 34.7917 56.4381 35.1144 56.5369 35.2625C56.5901 35.3396 56.6334 35.4232 56.6658 35.5111C57.1417 36.8078 58.5004 36.4383 59.0345 36.2336C59.1711 36.1809 59.2545 36.1361 59.2545 36.1361L60.5841 36.0054L61.4176 35.9245C61.4176 35.9245 61.8925 42.554 62.0505 43.0697C62.0743 43.1679 62.0793 43.2699 62.065 43.37Z" fill="#05749D"/>
<path id="Vector_99" d="M56.5819 33.0938C56.5819 33.0938 56.5819 33.0938 56.5819 33.0997C56.5273 33.254 56.4787 33.4121 56.4362 33.5734H55.1494C55.3619 33.3839 55.5883 33.2251 55.8249 33.0997L56.5819 33.0938Z" fill="#925978"/>
<path id="Vector_100" d="M56.3432 33.8125C56.3133 33.9536 56.2908 34.0972 56.2756 34.2424C56.2756 34.259 56.2756 34.2755 56.2712 34.2921H54.672C54.7608 34.0991 54.8408 33.9309 54.8905 33.8125H56.3432Z" fill="white"/>
<path id="Vector_101" d="M56.3431 34.7711H54.1945C54.278 34.6895 54.3625 34.6068 54.4413 34.5312H56.2947C56.2946 34.6122 56.3109 34.6928 56.3431 34.7711Z" fill="white"/>
<path id="Vector_102" d="M56.5819 35.4937H53.717C53.793 35.4218 53.8785 35.3384 53.9697 35.2539H56.3918C56.4042 35.2677 56.4166 35.2809 56.4289 35.2923C56.4812 35.3394 56.5237 35.3906 56.5553 35.4446C56.5619 35.4577 56.5724 35.4745 56.5819 35.4937Z" fill="white"/>
<path id="Vector_103" d="M53.4783 35.9511V36.214H57.2981C57.1325 36.0943 56.9923 35.9301 56.8885 35.7344H53.5977L53.4783 35.9511Z" fill="white"/>
<path id="Vector_104" d="M61.3568 36.2125H58.9694L59.0108 36.201C59.1438 36.1615 59.2249 36.1292 59.2249 36.1292L60.5185 36.033L61.3294 35.9727C61.3294 35.9727 61.3379 36.0617 61.3568 36.2125Z" fill="#925978"/>
<path id="Vector_105" d="M61.5955 36.9328H53.5147C53.499 36.7553 53.4871 36.5922 53.4783 36.4531H61.559C61.5748 36.5922 61.5847 36.7553 61.5955 36.9328Z" fill="white"/>
<path id="Vector_106" d="M61.5955 37.4117H53.5415C53.5168 37.3284 53.495 37.2474 53.4782 37.1719H61.5619C61.5718 37.2462 61.5807 37.3272 61.5955 37.4117Z" fill="white"/>
<path id="Vector_107" d="M61.5955 38.132H53.8137C53.776 37.9745 53.7421 37.8134 53.717 37.6523H61.5694C61.5752 37.8087 61.5858 37.9685 61.5955 38.132Z" fill="white"/>
<path id="Vector_108" d="M61.5954 38.8507H54.1294C54.0629 38.696 54.0049 38.5357 53.9557 38.3711H61.5659C61.5754 38.5258 61.5859 38.6876 61.5954 38.8507Z" fill="white"/>
<path id="Vector_109" d="M61.5955 39.5695H54.5422C54.5005 39.4837 54.448 39.4068 54.3866 39.3415C54.3156 39.2661 54.2512 39.1818 54.1945 39.0898H61.5647C61.5734 39.2501 61.5839 39.4151 61.5955 39.5695Z" fill="white"/>
<path id="Vector_110" d="M61.8342 40.0484H54.7773C54.7529 39.9669 54.7176 39.8867 54.6719 39.8086H61.8007C61.8116 39.8877 61.8234 39.9693 61.8342 40.0484Z" fill="white"/>
<path id="Vector_111" d="M61.8342 40.7687H54.9445C54.9367 40.602 54.9271 40.4401 54.9107 40.2891H61.8014C61.8121 40.4485 61.8227 40.6104 61.8342 40.7687Z" fill="#925978"/>
<path id="Vector_112" d="M61.8342 41.4874H54.9107C54.9107 41.3244 54.9107 41.1625 54.9107 41.0078H61.7948C61.8063 41.1697 61.8227 41.3316 61.8342 41.4874Z" fill="#925978"/>
<path id="Vector_113" d="M61.8342 41.9664H54.9107C54.9202 41.8872 54.9268 41.8057 54.9334 41.7266H61.7915C61.8048 41.8099 61.8181 41.8908 61.8342 41.9664Z" fill="#925978"/>
<path id="Vector_114" d="M62.073 42.6851H54.9107C54.9242 42.6078 54.9367 42.5268 54.9492 42.4453H62.0248C62.0431 42.5376 62.0585 42.6192 62.073 42.6851Z" fill="#925978"/>
<path id="Vector_115" d="M62.0678 43.2939C62.0678 43.3311 62.062 43.367 62.0571 43.4054H54.6719C54.6895 43.2627 54.707 43.0984 54.7236 42.9258H62.0464C62.0465 42.9286 62.0465 42.9314 62.0464 42.9342C62.0718 43.0514 62.079 43.1734 62.0678 43.2939Z" fill="white"/>
<path id="Vector_116" d="M62.0729 43.6445C62.0428 43.7997 62.0049 43.9643 61.9631 44.1242H54.8469L54.6719 43.9524C54.6719 43.9524 54.6719 43.9442 54.6719 43.9299C54.6778 43.8885 54.6914 43.7902 54.7108 43.6445H62.0729Z" fill="white"/>
<path id="Vector_117" d="M61.8342 44.3672C61.7818 44.4583 61.7285 44.5417 61.6829 44.607H55.6342L55.1494 44.3672H61.8342Z" fill="white"/>
<path id="Vector_118" d="M61.5955 44.8438L61.5856 44.8699L60.6103 45.3234H56.3607L55.8657 44.8485L61.5955 44.8438Z" fill="white"/>
<path id="Vector_119" d="M59.9243 45.5625L58.9353 46.0421H57.298L56.8206 45.5625H59.9243Z" fill="#925978"/>
<path id="Vector_120" d="M58.2531 46.2852L57.7695 46.525L57.5369 46.2852H58.2531Z" fill="#925978"/>
<path id="Vector_121" opacity="0.1" d="M62.0685 43.3309C61.4654 43.4766 60.9053 43.5831 60.9053 43.5831L57.7349 43.8843L57.2982 40.5127C57.2982 40.5127 57.9051 39.7675 58.4604 39.4849C58.9842 39.216 59.5567 38.5354 59.2346 36.9767C59.2164 36.8877 59.1954 36.7948 59.1705 36.699C59.1258 36.5263 59.0939 36.3505 59.0749 36.1729C58.9421 34.9438 59.5184 34.1722 59.6838 33.9796C59.7105 33.9473 59.7258 33.9317 59.7258 33.9317L59.9266 31.4156C59.9616 31.4135 59.9967 31.4135 60.0317 31.4156C60.2477 31.667 60.414 31.8361 60.414 31.8361L60.9005 32.635L60.5985 35.9461L61.4204 35.8649C61.4204 35.8649 61.8888 42.5143 62.0446 43.0316C62.071 43.1289 62.0791 43.2305 62.0685 43.3309Z" fill="black"/>
<path id="Vector_122" d="M64.6992 35.8636C64.2742 36.324 64.0162 36.9184 63.9678 37.5485C63.8805 38.6124 63.5148 38.6838 63.5148 38.6838L63.4975 41.7016C63.4975 41.7016 63.2182 42.394 63.5321 42.7128C63.8459 43.0316 60.9204 43.5831 60.9204 43.5831L57.7368 43.8843L57.2982 40.5125C57.2982 40.5125 57.9076 39.7673 58.4643 39.4847C59.021 39.2021 59.6314 38.455 59.1784 36.6987C58.783 35.1634 59.5047 34.1982 59.6938 33.9791C59.7207 33.9469 59.736 33.9312 59.736 33.9312L59.9376 31.4151C59.9376 31.4151 60.4847 31.376 60.8158 31.7837C60.885 31.8717 60.9604 31.9544 61.0414 32.0312C61.2679 32.2414 61.4656 32.2874 61.7036 32.1397C62.0175 31.9441 63.3756 31.1344 63.7758 31.6987C64.1761 32.2629 64.6992 35.8636 64.6992 35.8636Z" fill="#D94949"/>
<path id="Vector_123" d="M61.118 32.0497L60.7691 33.8167L59.6855 34.052C59.7141 34.0188 59.7304 34.0027 59.7304 34.0027L59.9447 31.4151C59.9447 31.4151 60.5262 31.3749 60.8782 31.7942C60.9518 31.885 61.0319 31.9704 61.118 32.0497Z" fill="#CB3535"/>
<path id="Vector_124" opacity="0.1" d="M61.118 32.0497L60.7691 33.8167L59.6855 34.052C59.7141 34.0188 59.7304 34.0027 59.7304 34.0027L59.9447 31.4151C59.9447 31.4151 60.5262 31.3749 60.8782 31.7942C60.9518 31.885 61.0319 31.9704 61.118 32.0497Z" fill="black"/>
<path id="Vector_125" opacity="0.1" d="M68.519 27.9708V28.5641L66.1969 29.2553C66.1969 29.2553 65.9845 29.1264 65.6541 28.9571C65.9051 28.8612 67.0434 28.4245 67.6308 28.1295C67.8482 28.023 67.9921 27.9357 67.9921 27.8931C67.9921 27.8697 67.9692 27.8441 67.9295 27.8164C68.2947 27.9112 68.519 27.9708 68.519 27.9708Z" fill="black"/>
<path id="Vector_126" opacity="0.1" d="M43.3774 56.1172L46.316 57.6873C46.316 57.6873 45.1893 58.42 44.1564 59.2348C43.0861 58.7325 42.0784 58.2698 41.3024 57.8393C42.1933 57.4163 43.3774 56.1172 43.3774 56.1172Z" fill="black"/>
<path id="Vector_127" opacity="0.1" d="M59.2041 66.9009C58.4458 66.9575 57.2371 66.6926 57.2371 66.6926C57.2371 66.6926 56.7454 66.649 55.9969 66.5032C55.9861 66.2512 55.9635 65.9645 55.9251 65.6392C55.7914 64.5054 55.9251 62.832 55.9251 62.832L58.6287 62.9669L59.0831 65.9368C59.1864 66.1094 59.2208 66.4516 59.2041 66.9009Z" fill="black"/>
<path id="Vector_128" d="M62.1393 54.4847C61.7176 55.3249 60.7151 58.7897 60.7151 58.7897C60.469 59.4139 60.1774 60.0194 59.8425 60.6013C59.3675 61.3884 59.1823 63.0417 58.9186 64.3806C58.6549 65.7195 59.1823 65.405 59.2094 66.087C59.2366 66.769 56.6761 66.2182 56.6761 66.2182C56.6761 66.2182 51.5308 65.7725 49.6053 62.9385C47.6798 60.1045 41.2169 58.1329 39.7558 56.5847C38.2947 55.0365 39.9759 55.5342 39.7907 54.6159C39.6055 53.6976 40.2125 52.8304 40.2125 52.8304C40.2125 52.8304 42.4288 51.8851 42.7458 51.3835C43.0629 50.8819 44.7518 49.5238 44.7518 49.5238C44.7518 49.5238 46.3884 48.5524 46.5726 48.264C46.7568 47.9756 48.7055 46.8991 49.3163 46.6628C49.9271 46.4264 50.4206 45.4541 50.4206 45.4541C50.4206 45.4541 50.8172 45.4541 51.3184 44.8242C51.8197 44.1943 54.1679 43.4062 54.1679 43.4062C58.683 45.8737 61.4733 45.0779 61.4733 45.0779L61.6139 45.6374C64.1715 48.1839 62.5621 53.6446 62.1393 54.4847Z" fill="#0881AD"/>
<path id="Vector_129" opacity="0.1" d="M61.5955 45.4864C61.5955 45.4864 58.2103 47.0045 54.1945 43.4062C58.6819 45.7068 61.4576 44.9648 61.4576 44.9648L61.5955 45.4864Z" fill="black"/>
<path id="Vector_130" opacity="0.1" d="M55.8657 48.4417C55.8657 48.4417 51.8546 55.8225 51.5809 56.108C51.3071 56.3934 55.5939 48.3903 55.8657 48.4417Z" fill="black"/>
<path id="Vector_131" opacity="0.1" d="M58.0124 47.4844C58.0124 47.4844 55.2286 53.0351 55.3954 53.7195C55.3954 53.7195 58.0963 48.3786 58.0124 47.4844Z" fill="black"/>
<path id="Vector_132" opacity="0.1" d="M60.1789 48.6797C60.1789 48.6797 59.9949 51.6959 60.8793 53.2361L60.1789 48.6797Z" fill="black"/>
<path id="Vector_133" opacity="0.1" d="M61.3568 48.6797C61.3568 48.6797 61.7246 51.2961 62.073 51.7973L61.3568 48.6797Z" fill="black"/>
<path id="Vector_134" opacity="0.1" d="M53.0007 47.4844L48.7034 49.8825H50.3893L53.0007 47.4844Z" fill="black"/>
<path id="Vector_135" opacity="0.1" d="M59.087 27.0599C58.889 27.2361 58.7405 27.4966 58.4872 27.5661C58.3073 27.6151 58.1188 27.5544 57.9398 27.5015C57.4866 27.3673 56.9811 27.2841 56.5555 27.4947C55.9491 27.7953 55.6987 28.5934 55.0923 28.8989C54.9435 28.9745 54.7804 29.0155 54.6146 29.0188C54.4487 29.0222 54.2842 28.988 54.1326 28.9185C53.8647 28.7938 53.6553 28.5654 53.55 28.283C53.3729 27.8012 53.5405 27.2381 53.868 26.8483C54.1955 26.4586 54.6601 26.2187 55.1304 26.0424C56.3604 25.5821 57.6904 25.5028 58.9985 25.4284C59.1043 25.412 59.2125 25.4266 59.3107 25.4705C59.5268 25.5939 59.96 26.3078 59.9219 26.5751C59.8715 26.9267 59.087 26.77 59.087 27.0599Z" fill="black"/>
<path id="Vector_136" d="M59.087 27.0609C58.889 27.238 58.7405 27.4974 58.4872 27.5669C58.3073 27.6169 58.1188 27.5562 57.9398 27.5023C57.4866 27.3682 56.9811 27.285 56.5555 27.4955C55.9491 27.796 55.6987 28.5947 55.0923 28.8992C54.9063 28.9932 54.6989 29.0331 54.4925 29.0147C54.368 29.0032 54.2463 28.9701 54.1326 28.9168C53.8647 28.7921 53.6553 28.5638 53.55 28.2815C53.3729 27.7999 53.5405 27.2371 53.868 26.8485C54.1955 26.4598 54.6601 26.2181 55.1304 26.0419C56.3604 25.5818 57.6904 25.5025 58.9985 25.4281C59.1044 25.4121 59.2126 25.427 59.3107 25.4712C59.5268 25.5945 59.96 26.3071 59.9219 26.5744C59.8715 26.9365 59.087 26.7711 59.087 27.0609Z" fill="#804B35"/>
<path id="Vector_137" d="M42.4961 31.3556L42.3023 33.0924L41.7122 32.8371L38.5146 31.4478C38.5146 31.4478 36.2608 31.6571 35.851 29.8924C35.4411 28.1278 38.3431 29.5526 38.5011 29.6707C38.659 29.7887 39.0156 29.9827 39.0156 29.9827L41.9758 31.1492L42.4961 31.3556Z" fill="#FFE1D4"/>
<path id="Vector_138" opacity="0.1" d="M42.4961 31.3779L42.26 33.0943L41.5411 32.8419C41.5671 32.0734 41.6828 31.357 41.8669 31.1758L42.4961 31.3779Z" fill="black"/>
<path id="Vector_139" opacity="0.1" d="M58.4919 40.5311L58.3498 44.1258L54.6383 43.8469C54.6893 43.566 55.3075 40.03 54.4218 39.2912C53.4969 38.5217 53.4783 36.0284 53.4783 36.0284C53.4783 36.0284 54.6658 34.2652 54.9009 33.8467C55.1361 33.4283 56.9193 32.8935 56.9193 32.8935C56.9725 32.7259 56.9944 32.5502 56.984 32.375C57.059 32.4874 57.1224 32.607 57.1731 32.7319C57.2534 33.3744 57.0516 33.8477 56.3951 34.2613C56.3373 34.2979 56.2766 34.3335 56.2119 34.3691C56.1071 34.4258 55.9934 34.4826 55.869 34.5374L55.8131 34.5624C54.6932 35.0511 54.5325 35.7667 54.5325 35.7667C54.1947 36.3459 54.0932 37.0293 54.2484 37.679C54.51 38.7535 58.4919 40.5311 58.4919 40.5311Z" fill="black"/>
<path id="Vector_140" d="M58.2531 40.4789L58.1123 44.1272L53.9717 43.8089C53.9717 43.8089 53.9192 42.4421 54.1299 41.8564C54.3407 41.2706 54.0076 39.1472 54.0076 39.1472C52.0519 37.5168 52.7559 35.8874 52.7559 35.8874C52.7559 35.8874 47.6093 35.7283 47.5063 35.5867C47.4034 35.4452 45.604 34.753 45.604 34.753C45.604 34.753 43.7182 34.5236 43.4366 34.2932C43.3326 34.2056 43.2208 34.1278 43.1026 34.0608C43.0685 34.0412 43.0331 34.024 42.9967 34.0091L43.0142 35.1962C43.0006 35.1972 42.987 35.1972 42.9734 35.1962H42.9511C42.6536 35.2064 42.3589 35.1363 42.0975 34.9932C41.6402 34.7276 41.7091 31.1486 42.0975 30.9729C42.1713 30.9425 42.2515 30.9314 42.3306 30.9406C42.6481 30.9631 43.0686 31.1886 43.2609 31.2999L43.3386 31.3468L43.3667 31.3644C43.3667 31.3644 45.7623 31.9638 46.2731 32.3182C46.7839 32.6726 50.4001 32.7272 50.4001 32.7272C50.4001 32.7272 52.0383 32.8971 52.215 32.6403C52.3917 32.3836 54.7689 31.6934 55.0156 32.0126C55.2622 32.3318 55.8215 32.2079 55.8215 32.2079C56.1604 31.6924 56.4605 31.8359 56.6644 32.078C56.7819 32.2256 56.8765 32.3901 56.9451 32.5661C57.0324 33.2759 56.7877 33.7816 55.9924 34.2258C55.873 34.2922 55.7419 34.3576 55.5972 34.4211C54.4873 34.917 54.329 35.6434 54.329 35.6434C53.9937 36.231 53.8927 36.9246 54.0464 37.5842C54.3067 38.6747 58.2531 40.4789 58.2531 40.4789Z" fill="#D94949"/>
<path id="Vector_141" opacity="0.1" d="M42.457 30.9375C42.4136 30.9402 42.3711 30.9513 42.3316 30.9701C41.9489 31.1478 41.881 34.7667 42.3316 35.0352C42.557 35.1671 42.8095 35.2419 43.0684 35.2534H43.0904C43.1037 35.2544 43.1172 35.2544 43.1306 35.2534L43.1133 34.053C43.1492 34.068 43.184 34.0855 43.2176 34.1053V34.053C43.0556 33.614 42.9925 33.1427 43.0329 32.6748C43.0734 32.2069 43.2163 31.7546 43.4511 31.3521L42.457 30.9375Z" fill="black"/>
<path id="Vector_142" d="M56.0594 34.295L55.3882 33.8212L56.7526 32.1367C56.8738 32.285 56.9714 32.4504 57.0421 32.6272C57.1322 33.3385 56.8798 33.8467 56.0594 34.295Z" fill="#CB3535"/>
<path id="Vector_143" opacity="0.1" d="M56.0594 34.295L55.3882 33.8212L56.7526 32.1367C56.8736 32.2851 56.9712 32.4505 57.0421 32.6272C57.1322 33.3395 56.8798 33.8467 56.0594 34.295Z" fill="black"/>
<path id="Vector_144" opacity="0.1" d="M59.0879 26.8137C58.8898 26.9924 58.7403 27.2554 58.488 27.3259C58.308 27.3765 58.1195 27.315 57.9405 27.2614C57.4863 27.1244 56.9807 27.04 56.5551 27.2544C55.9495 27.5592 55.6981 28.3682 55.0915 28.6779C54.9057 28.7724 54.6987 28.8125 54.4926 28.794C54.2844 28.7762 54.0853 28.6971 53.9184 28.566C53.7516 28.435 53.6238 28.2572 53.55 28.0535C53.5138 27.9527 53.4914 27.8471 53.4833 27.7398C53.4672 27.9192 53.49 28.1 53.55 28.2689C53.655 28.5554 53.8645 28.787 54.1327 28.9131C54.2464 28.9673 54.3681 29.0009 54.4926 29.0124C54.6988 29.0311 54.9059 28.9906 55.0915 28.8953C55.6962 28.5866 55.9485 27.7766 56.5551 27.4718C56.9807 27.2584 57.4863 27.3428 57.9405 27.4788C58.1195 27.5334 58.308 27.5949 58.488 27.5443C58.7403 27.4738 58.8898 27.2107 59.0879 27.0311C59.0879 26.7333 59.8725 26.9 59.923 26.5397C59.9271 26.4855 59.9216 26.431 59.9068 26.3789C59.7858 26.6648 59.0879 26.5367 59.0879 26.8137Z" fill="black"/>
<path id="Vector_145" opacity="0.1" d="M57.7756 35.066C57.7756 35.066 58.2783 36.0444 57.8557 36.4506C57.8557 36.4506 58.1894 35.025 58.4919 35.0117" fill="black"/>
<path id="Vector 2" d="M69.3546 28.1797L67.3253 29.3788L69.5933 30.5778C68.3996 31.1773 65.5109 32.2805 64.9379 31.8968C64.3649 31.5131 63.6646 31.577 63.386 31.657C63.6646 33.2957 64.2933 36.4292 64.5798 35.8537C64.8662 35.2781 67.3253 34.0951 68.519 33.5755C69.2352 33.0958 71.5033 31.4172 72.2195 31.0574C72.7597 30.7861 72.8562 30.0582 72.697 29.8584L69.3546 28.1797Z" fill="#D94949"/>
<path id="Vector_146" d="M69.9514 28.4171L68.0415 29.7361C68.0415 29.7361 67.6861 29.9385 67.2059 29.7361C66.7258 29.5337 65.8928 29.1009 65.8928 29.1009C65.8928 29.1009 67.6204 28.2503 68.2802 27.9375L69.9514 28.4171Z" fill="#CB3535"/>
</g>
<defs>
<linearGradient id="paint0_linear_2191_80313" x1="51.6893" y1="79.8624" x2="51.6893" y2="22.7807" gradientUnits="userSpaceOnUse">
<stop stop-color="#808080" stop-opacity="0.25"/>
<stop offset="0.54" stop-color="#808080" stop-opacity="0.12"/>
<stop offset="1" stop-color="#808080" stop-opacity="0.1"/>
</linearGradient>
</defs>
</svg>
