<svg width="15" height="22" viewBox="0 0 15 22" fill="none" xmlns="http://www.w3.org/2000/svg">
<path opacity="0.5" d="M15 8.0157C15 10.91 11.7942 16.4916 9.57443 20.0094C8.59256 21.5655 6.40744 21.5655 5.42557 20.0094C3.20581 16.4916 0 10.91 0 8.0157C0 3.58875 3.35786 0 7.5 0C11.6421 0 15 3.58875 15 8.0157Z" fill="#D450BC"/>
<path d="M10.5866 7.49449C10.5866 9.20007 9.20398 10.5827 7.49839 10.5827C5.79281 10.5827 4.41016 9.20007 4.41016 7.49449C4.41016 5.7889 5.79281 4.40625 7.49839 4.40625C9.20398 4.40625 10.5866 5.7889 10.5866 7.49449Z" fill="#D450BC"/>
</svg>
