<svg width="11" height="16" viewBox="0 0 11 16" fill="none" xmlns="http://www.w3.org/2000/svg">
<g id="Group 1171276480">
<path id="Vector" opacity="0.5" d="M11 5.87818C11 8.00066 8.64908 12.0938 7.02125 14.6736C6.30121 15.8147 4.69879 15.8147 3.97875 14.6736C2.35093 12.0938 0 8.00067 0 5.87818C0 2.63175 2.46243 0 5.5 0C8.53757 0 11 2.63175 11 5.87818Z" fill="white"/>
<path id="Vector_2" d="M7.764 5.49908C7.764 6.74984 6.75006 7.76379 5.49929 7.76379C4.24853 7.76379 3.23459 6.74984 3.23459 5.49908C3.23459 4.24832 4.24853 3.23438 5.49929 3.23438C6.75006 3.23438 7.764 4.24832 7.764 5.49908Z" fill="white"/>
</g>
</svg>
