<svg width="31" height="11" viewBox="0 0 31 11" fill="none" xmlns="http://www.w3.org/2000/svg">
<path id="Time" fill-rule="evenodd" clip-rule="evenodd" d="M4.97964 10.7813C2.96221 10.7813 1.39392 9.62283 1.09204 7.91716H3.29354C3.49971 8.59232 4.16236 9.01874 4.99437 9.01874C6.45222 9.01874 7.33577 7.66131 7.29159 5.52922H7.15906C6.67311 6.49576 5.68648 7.043 4.44952 7.043C2.43209 7.043 0.952148 5.60739 0.952148 3.64587C0.952148 1.51378 2.63825 0 5.01646 0C6.54794 0 7.7849 0.646734 8.52119 1.84781C9.11022 2.72907 9.4121 3.90883 9.4121 5.3089C9.4121 8.72024 7.74809 10.7813 4.97964 10.7813ZM5.03119 5.38708C6.14298 5.38708 6.96026 4.62663 6.96026 3.59612C6.96026 2.55851 6.12825 1.75542 5.03855 1.75542C3.94884 1.75542 3.10947 2.5514 3.10947 3.5748C3.10947 4.62663 3.91939 5.38708 5.03119 5.38708ZM12.5416 9.48069C13.3368 9.48069 13.8448 8.96188 13.8448 8.24408C13.8448 7.52627 13.3368 7.01457 12.5416 7.01457C11.7538 7.01457 11.2384 7.52627 11.2384 8.24408C11.2384 8.96188 11.7538 9.48069 12.5416 9.48069ZM12.5416 4.23575C13.3368 4.23575 13.8448 3.71694 13.8448 2.99914C13.8448 2.28134 13.3368 1.76963 12.5416 1.76963C11.7538 1.76963 11.2384 2.28134 11.2384 2.99914C11.2384 3.71694 11.7538 4.23575 12.5416 4.23575ZM20.8988 10.5183V8.72735H15.7006V6.82979C16.6578 5.08859 18.042 2.97071 19.9048 0.262958H23.0193V6.9435H24.4109V8.72735H23.0193V10.5183H20.8988ZM17.6959 6.89375V7.00747H20.9503V1.93309H20.8325C19.8606 3.33317 18.9108 4.76877 17.6959 6.89375ZM28.4019 10.5183H30.6254V0.262958H28.4092L25.6629 2.08945V4.0865L28.2693 2.35241H28.4019V10.5183Z" fill="white"/>
</svg>
