<svg width="16" height="11" viewBox="0 0 16 11" fill="none" xmlns="http://www.w3.org/2000/svg">
<path id="Wifi" fill-rule="evenodd" clip-rule="evenodd" d="M7.91572 2.20978C10.1433 2.20987 12.2857 3.03605 13.9001 4.51756C14.0217 4.63194 14.216 4.6305 14.3358 4.51433L15.4979 3.38227C15.5585 3.32335 15.5923 3.24353 15.5918 3.16049C15.5913 3.07745 15.5565 2.99803 15.4952 2.93979C11.2578 -0.979931 4.57293 -0.979931 0.335581 2.93979C0.2742 2.99798 0.239373 3.07738 0.238807 3.16042C0.238241 3.24347 0.271982 3.3233 0.332565 3.38227L1.495 4.51433C1.61466 4.63067 1.80913 4.63212 1.93062 4.51756C3.54525 3.03595 5.68791 2.20977 7.91572 2.20978ZM7.9157 5.89285C9.13962 5.89278 10.3199 6.33189 11.2271 7.12486C11.3498 7.2374 11.5431 7.23496 11.6627 7.11936L12.8235 5.9873C12.8846 5.92792 12.9185 5.84736 12.9176 5.76366C12.9168 5.67995 12.8812 5.60008 12.8188 5.54191C10.0561 3.06136 5.77766 3.06136 3.01495 5.54191C2.95255 5.60008 2.91694 5.67999 2.91612 5.76373C2.9153 5.84746 2.94934 5.928 3.0106 5.9873L4.17102 7.11936C4.29064 7.23496 4.48394 7.2374 4.60665 7.12486C5.51328 6.33241 6.69259 5.89334 7.9157 5.89285ZM10.2409 8.37092C10.2427 8.45486 10.2085 8.53579 10.1464 8.5946L8.13853 10.5505C8.07967 10.608 7.99942 10.6403 7.91569 10.6403C7.83196 10.6403 7.75171 10.608 7.69285 10.5505L5.68464 8.5946C5.6226 8.53574 5.58847 8.45479 5.59031 8.37085C5.59215 8.28691 5.62979 8.20742 5.69435 8.15115C6.97666 7.10427 8.85472 7.10427 10.137 8.15115C10.2015 8.20746 10.2391 8.28698 10.2409 8.37092Z" fill="white"/>
</svg>
